<?xml version="1.0" encoding="UTF-8"?>
<svg version="1.1" viewBox="0 0 1600 1600" width="1280" height="1280" xmlns="http://www.w3.org/2000/svg">
<path transform="translate(771 327)" d="m0 0c1.3-0.00953 2.6-0.0191 3.93-0.0289 1.4 2.61e-4 2.81 0.0012 4.21 0.00276 1.45-0.00389 2.91-0.00823 4.36-0.013 3.04-0.00744 6.08-0.00718 9.13-0.00191 3.88 0.00579 7.77-0.0111 11.7-0.0343 3-0.0148 6-0.0156 9.01-0.0125 1.43-5.11e-4 2.86-0.00571 4.29-0.0158 13.3-0.0823 13.3-0.0823 19.8 3.38 3.69 0.25 3.69 0.25 7.5 0 7.05-0.21 13.2 0.716 20.1 2.27 3.86 0.821 7.65 1.24 11.6 1.52 1.86 0.211 1.86 0.211 3.86 1.21 3.44 0.264 6.88 0.445 10.3 0.605 5.58 0.294 5.58 0.294 6.68 1.39 1.66 0.16 3.33 0.278 5 0.375 6.04 0.495 11.6 1.76 16.9 4.69 2.43 1.1 4.4 1.27 7.06 1.43 3.6 0.219 5.81 0.903 9 2.5 2 0.349 4 0.681 6 1 2.46 0.691 4.88 1.41 7.31 2.19 1.03 0.324 1.03 0.324 2.07 0.656 9.63 3.08 19.3 6.32 28.6 10.2v2c0.763 0.124 1.53 0.248 2.31 0.375 2.69 0.625 2.69 0.625 5.69 2.62 1.13 0.309 2.27 0.619 3.44 0.938 3.4 1.01 4.82 1.99 7.56 4.06 1.4 0.614 2.82 1.17 4.25 1.69 6.88 2.64 13.4 6.04 19.9 9.39 1.71 0.866 3.43 1.7 5.15 2.54 2.68 1.38 2.68 1.38 5.24 3.45 2.29 2.01 2.29 2.01 4.82 2.88 2.63 1.06 4.68 2.32 7 3.93 3.78 2.59 7.62 4.91 11.6 7.12v2c0.712 0.249 1.42 0.498 2.16 0.754 3.16 1.38 5.59 3.11 8.34 5.18 2.68 2.02 5.3 3.94 8.19 5.66 2.88 1.75 4.93 4.02 7.31 6.4 0.745 0.437 1.49 0.874 2.26 1.32 3.32 2.03 6.19 4.45 9.12 6.99 0.57 0.489 1.14 0.978 1.73 1.48 1.12 0.965 2.25 1.93 3.37 2.9 1.3 1.11 2.61 2.2 3.93 3.29 1.57 1.3 3.09 2.65 4.6 4.02v2c0.684 0.192 1.37 0.384 2.07 0.582 4.06 1.97 6.65 4.87 9.74 8.11 1.25 1.28 2.5 2.56 3.75 3.84 0.596 0.608 1.19 1.22 1.8 1.84 2.47 2.48 5.11 4.73 7.77 7 5.85 5.14 11.1 10.8 16.2 16.8 1.61 1.81 3.29 3.47 5.05 5.13 3.89 3.83 7.03 8.14 10.3 12.5 2.32 3.16 4.71 6.25 7.12 9.34 4.1 5.3 8.07 10.7 12 16.1 0.531 0.732 1.06 1.46 1.61 2.22 8.14 11.3 15.5 23.1 22.9 34.9 0.637 1.02 0.637 1.02 1.29 2.05 3.21 5.14 6.27 10.1 8.58 15.7 0.951 2.03 2.08 3.82 3.32 5.69 2.45 3.79 4.07 7.68 5.67 11.9 0.905 2.43 0.905 2.43 2.33 5.17 2 4 3.67 8.11 5.38 12.2 0.88 2.13 1.78 4.26 2.69 6.38 4.76 11.1 9.5 22.3 13.2 33.8 0.859 3.51 0.859 3.51 2.25 4.75 0.466 2.07 0.928 4.13 1.37 6.21 1.21 5.37 2.69 10.7 4.13 16 0.308 1.15 0.616 2.3 0.934 3.48 1.7 6.32 1.7 6.32 3.65 12.6 0.818 2.47 1.22 4.51 1.42 7.08 0.363 3.78 1.04 7.35 1.89 11 4.06 17.6 4.06 17.6 3.52 25.1 0.0846 2.39 0.489 4.24 1.08 6.54 1.18 5.2 1.29 10.2 1.27 15.5 0.00526 1.51 0.00526 1.51 0.0106 3.05 0.00874 3.3 3e-3 6.61-0.00378 9.91 0.00135 2.31 0.00329 4.61 0.0058 6.92 0.00294 4.82-0.00132 9.64-0.0107 14.5-0.0114 6.18-0.00481 12.4 0.00714 18.5 0.00722 4.76 0.00493 9.52-2.56e-4 14.3-0.00133 2.28 3.01e-4 4.56 0.00496 6.84 0.00508 3.18-0.00266 6.36-0.0138 9.54 0.00405 0.94 0.0081 1.88 0.0123 2.85-0.0295 4.55-0.28 7.95-2.27 12.1-0.302 3.25-0.461 6.48-0.566 9.74-0.232 5.06-0.232 5.06-2.43 7.26-0.427 3.09-0.427 3.09-0.562 6.56-0.34 6.34-0.34 6.34-1.44 7.44-0.285 3.04-0.449 6.07-0.621 9.12-0.379 2.88-0.379 2.88-2.38 5.88-0.559 2.3-1.05 4.61-1.5 6.94-1.28 6.63-1.28 6.63-2.56 9.18-1.53 3.06-1.39 6.26-1.59 9.64-0.344 2.24-0.344 2.24-2.34 4.24-0.339 2.33-0.672 4.67-1 7-0.66 0.99-1.32 1.98-2 3-0.593 1.88-1.13 3.78-1.62 5.69-0.391 1.49-0.391 1.49-0.789 3.01l-0.586 2.3h-2c-0.104 0.621-0.209 1.24-0.317 1.88-1.09 5.96-2.69 11.3-5.12 16.8-0.341 0.795-0.683 1.59-1.03 2.41-3.77 8.66-7.89 17.2-12 25.7-1.56 3.22-3.05 6.44-4.47 9.73-2.37 5.38-5.2 10.5-8.05 15.6-0.521 0.95-1.04 1.9-1.58 2.88-1.47 2.67-2.94 5.33-4.42 8-0.359 0.65-0.718 1.3-1.09 1.97-2.45 4.37-5.17 8.51-7.97 12.7-3.39 5-3.39 5-6.56 10.1-1.3 2.1-2.64 3.49-4.38 5.23-1.16 1.73-2.28 3.48-3.38 5.25-6.95 11.1-6.95 11.1-10.1 14.2-1.76 1.77-3.23 3.65-4.75 5.63-11.1 14.3-11.1 14.3-16.8 19.9-0.978 1.13-1.95 2.26-2.91 3.4-4.55 5.23-9.43 10.1-14.3 15-1.59 1.59-3.17 3.19-4.75 4.78-1.01 1.01-2.02 2.02-3.03 3.04-1.36 1.37-1.36 1.37-2.75 2.77-2.23 1.98-2.23 1.98-4.23 1.98-0.377 0.862-0.377 0.862-0.762 1.74-1.4 2.55-3 4.32-5.05 6.38-0.666 0.683-1.33 1.37-2.02 2.07-2.17 1.8-2.17 1.8-4.62 2.73-3.33 1.4-5.07 3.46-7.55 6.07-6.22 5.68-12.7 11.1-19.8 15.6-2.51 1.6-4.94 3.31-7.38 5.02-2.71 1.91-5.42 3.8-8.19 5.62-1.59 1.06-3.16 2.16-4.69 3.31-2.23 1.65-4.56 3.02-6.94 4.44-0.926 0.581-1.85 1.16-2.8 1.76-7.14 4.48-14.4 8.57-21.9 12.5-3.65 1.94-7.16 4.01-10.6 6.26-2.69 1.5-2.69 1.5-6.38 2.81-3.29 1.17-6.05 2.69-9 4.56-5.8 3.59-11.9 5.84-18.3 8.12-1.9 0.687-3.79 1.37-5.69 2.06-0.788 0.28-1.58 0.559-2.39 0.848-1.71 0.638-3.42 1.29-5.11 1.99-6.06 2.5-12.1 4.45-18.4 6.16-6.26 1.71-12.3 3.59-18.4 5.94-5.62 2.13-11.3 3.03-17.2 4-8.76 1.47-17.5 2.93-26.1 5.06-4.54 1.04-9.07 1.33-13.7 1.66-3.35 0.322-6.49 1-9.74 1.81-3.12 0.678-6.25 0.956-9.43 1.23-1.78 0.0706-1.78 0.0706-2.75 1.25-1.5 0.1-3 0.131-4.49 0.134-0.971 0.00426-1.94 0.00853-2.94 0.0129-1.07-4.53e-4 -2.15-9.06e-4 -3.26-0.00137-1.13 0.00336-2.25 0.00672-3.41 0.0102-3.74 0.00955-7.49 0.0115-11.2 0.0125-2.6 0.00321-5.2 0.00658-7.79 0.0101-5.46 6e-3 -10.9 0.00788-16.4 0.00725-6.29-5.99e-4 -12.6 0.00991-18.9 0.0257-6.06 0.0147-12.1 0.0182-18.2 0.0176-2.57 0.00118-5.15 0.00559-7.72 0.0133-3.61 0.00984-7.22 0.0069-10.8 8.95e-4 -1.06 0.00562-2.11 0.0112-3.2 0.017-7.82-0.0329-14.9-1.19-22.4-3.32-3.72-0.981-7.35-1.17-11.2-1.38-5.05-0.301-9.21-1-13.9-2.8-3.2-1.13-6.47-1.67-9.8-2.29-2.34-0.469-2.34-0.469-5.97-1.53-3.13-0.868-6.1-1.25-9.31-1.61-2.86-0.461-5.46-1.41-8.18-2.38-3.9-1.29-7.85-2.32-11.8-3.39-6.56-1.78-12.8-3.86-19.1-6.56-3.76-1.49-7.45-2.86-11.4-3.88-3.96-1.23-7.36-2.94-11-4.91-2.68-1.34-2.68-1.34-5.97-2.13-4.09-1.22-7.45-2.96-11.2-5.03-7.98-4.36-16.1-8.28-24.4-12.1-5.35-2.5-10.2-5.25-15.1-8.61-2.63-1.81-5.36-3.41-8.13-5-1.01-0.581-2.02-1.16-3.05-1.76-0.931-0.532-1.86-1.06-2.82-1.61-0.766-0.44-1.53-0.879-2.32-1.33-1.56-0.893-3.12-1.78-4.68-2.67v-2c-0.681-0.236-1.36-0.472-2.06-0.715-3.59-1.57-6.72-3.65-9.94-5.85-0.656-0.444-1.31-0.888-1.99-1.35-1.35-0.917-2.7-1.84-4.05-2.76-1.82-1.24-3.65-2.46-5.48-3.68-6.18-4.17-11.8-8.55-17.2-13.7-2.71-2.37-5.53-4.14-8.7-5.84-2-1.46-2.51-2.96-3.59-5.17-1.83-1.9-1.83-1.9-3.94-3.62-0.69-0.59-1.38-1.18-2.09-1.79-3.11-2.71-3.11-2.71-6.97-3.59-3-4.38-3-4.38-3-7-0.557-0.206-1.11-0.412-1.69-0.625-2.6-1.55-4.17-3.45-6.04-5.81-1.39-1.76-1.39-1.76-3.65-3.94-2.22-2.22-4.34-4.47-6.44-6.81-0.605-0.674-1.21-1.35-1.83-2.04-1.36-1.77-1.36-1.77-1.36-3.77-0.99-0.33-1.98-0.66-3-1v-2h-2c-1.51-1.68-1.51-1.68-3.12-3.88-0.539-0.719-1.08-1.44-1.63-2.18-1.24-1.95-1.24-1.95-1.24-3.95h-2c-1.23-1.36-1.23-1.36-2.62-3.31-0.781-1.08-0.781-1.08-1.58-2.18-0.593-0.826-1.19-1.65-1.8-2.5-1.08-1.44-1.08-1.44-2.17-2.91-0.727-0.978-1.45-1.96-2.2-2.96-1.03-1.39-1.03-1.39-2.09-2.8-1.54-2.32-1.54-2.32-1.54-4.32h-2c-0.977-1.79-1.95-3.58-2.93-5.37-0.984-1.8-0.984-1.8-3.07-2.63l-3-6c-0.773-0.712-0.773-0.712-1.56-1.44-2.26-2.46-2.66-5.38-3.44-8.56h-2c-5.08-6.02-8.68-12.9-12-20-0.563-1.07-0.563-1.07-1.14-2.16-0.863-1.84-0.863-1.84-0.863-3.84h-2c-8.38-16.8-8.38-16.8-9.59-19.2-1.11-2.21-2.22-4.41-3.33-6.62-2.05-4.06-4.07-8.13-6.09-12.2-0.683-1.37-0.683-1.37-1.38-2.77-3.32-6.96-5.78-14.2-8.21-21.5-0.425-1.26-0.425-1.26-0.859-2.54-0.376-1.14-0.376-1.14-0.76-2.3-0.731-2.08-0.731-2.08-2.79-3.89-0.667-2.25-1.26-4.53-1.81-6.81-1.27-5.06-2.74-9.89-4.69-14.8-3.89-9.76-6.63-19.6-8.01-30-0.383-2.67-0.383-2.67-2.49-5.43-0.38-2.01-0.684-4.03-0.938-6.06-0.573-4.09-1.25-7.9-2.56-11.8-1.8-5.53-2.4-11.2-3.07-16.9-0.328-3.23-0.328-3.23-1.43-6.22-0.094-1.66-0.131-3.32-0.134-4.98-0.00426-1.03-0.00853-2.06-0.0129-3.11 4.53e-4 -1.13 9.06e-4 -2.25 0.00137-3.41-0.00336-1.19-0.00672-2.37-0.0102-3.6-0.00788-3.26-0.0112-6.51-0.0118-9.77-9.49e-4 -2.72-0.00463-5.43-0.00817-8.15-0.00814-6.41-0.0106-12.8-0.00987-19.2 6.01e-4 -6.61-0.00997-13.2-0.0257-19.8-0.0131-5.68-0.0184-11.4-0.0178-17 2.55e-4 -3.39-0.00262-6.78-0.0132-10.2-0.00974-3.78-0.00695-7.56-8.95e-4 -11.3-0.00562-1.13-0.0112-2.26-0.017-3.42 0.00419-1.02 0.00839-2.05 0.0127-3.11-5.45e-4 -0.894-0.00109-1.79-0.00165-2.71 0.249-2.14 0.249-2.14 2.25-4.14 0.391-1.97 0.689-3.95 0.938-5.94 0.601-4.34 1.36-8.43 2.62-12.6 1.46-4.97 1.9-9.74 2.13-14.9 0.309-2.53 0.309-2.53 2.31-5.53 0.566-2.13 0.566-2.13 0.938-4.5 2.47-13.3 2.47-13.3 5.06-18.5 0.144-1.18 0.289-2.35 0.438-3.56 0.186-1.13 0.371-2.27 0.562-3.44 0.66-0.33 1.32-0.66 2-1 0.407-2.32 0.744-4.66 1-7h2c-0.0412-0.908-0.0825-1.82-0.125-2.75 0.125-3.25 0.613-4.49 2.12-7.25 0.248-1.24 0.248-1.24 0.5-2.5 0.5-2.5 1.34-4.25 2.5-6.5 0.144-0.598 0.289-1.2 0.438-1.81 0.826-3.21 2.25-6.14 3.56-9.19 0.351-1.11 0.701-2.23 1.06-3.38 0.938-2.62 0.938-2.62 2.94-3.62 0.144-1.07 0.289-2.14 0.438-3.25 0.573-3.82 1.52-5.56 3.56-8.75l1.06-3.25c0.938-2.75 0.938-2.75 2.94-3.75 0.68-2 1.34-4 2-6 0.994-1.67 1.99-3.34 3-5 0.186-0.743 0.371-1.48 0.562-2.25 0.144-0.578 0.289-1.16 0.438-1.75 0.66-0.33 1.32-0.66 2-1 0.309-0.928 0.619-1.86 0.938-2.81 1.06-3.19 1.06-3.19 2.62-5.25 1.7-2.29 1.91-4.17 2.44-6.94 0.66-0.33 1.32-0.66 2-1 0.674-1.66 1.34-3.33 2-5 0.516-0.681 1.03-1.36 1.56-2.06 1.51-2.03 1.85-3.52 2.44-5.94 0.66-0.33 1.32-0.66 2-1 1.04-1.98 2.03-3.99 3-6 1.98-3.75 3.92-7.05 7-10 0.681-1.05 1.36-2.1 2.06-3.19 0.959-1.39 0.959-1.39 1.94-2.81h2c0.309-1.24 0.309-1.24 0.625-2.5 1.49-3.79 3.41-6.42 5.94-9.57 1.42-1.9 2.4-3.8 3.44-5.93l3-3c1.18-2.1 1.18-2.1 2-4h2c0.268-0.639 0.536-1.28 0.812-1.94 1.19-2.06 1.19-2.06 4.19-3.06 0.268-0.681 0.536-1.36 0.812-2.06 2.5-6.19 7.24-11.5 12.2-15.9 0.99-0.33 1.98-0.66 3-1v-2h2v-5l1.88-0.812c2.42-1.14 2.42-1.14 4.12-4.19h2c0.33-0.99 0.66-1.98 1-3 2.67-2.91 5.54-5.47 8.56-8 2.88-2.42 5.1-5.05 7.44-8h2v-2c1.29-1.38 2.63-2.71 4-4 0.516-0.577 1.03-1.15 1.56-1.75 1.44-1.25 1.44-1.25 4.44-1.25 1.4-1.34 1.4-1.34 2.69-3.12 2.81-3.47 5.84-5.96 9.48-8.52 1.79-1.33 3.28-2.76 4.83-4.36 3.88-3.2 7.89-6.25 11.9-9.33 1.61-1.26 3.19-2.55 4.76-3.86 2.36-1.8 4.81-3.24 7.41-4.68 6.62-3.77 6.62-3.77 12.4-8.63 1.98-1.93 4.15-3.13 6.55-4.5 0.848-0.53 1.7-1.06 2.57-1.61 0.843-0.522 1.69-1.04 2.55-1.58 0.848-0.53 1.7-1.06 2.57-1.61 2.3-1.21 2.3-1.21 5.3-1.21v-2c6.5-4.71 13.3-8.39 20.9-11.1 2.37-0.872 2.37-0.872 5.13-2.86 5.74-3.83 12.5-5.93 19-8v-2c0.771-0.193 1.54-0.387 2.34-0.586 1-0.26 2.01-0.521 3.04-0.789 0.998-0.255 2-0.51 3.02-0.773 2.73-0.676 2.73-0.676 4.6-2.85 0.804-0.144 1.61-0.289 2.44-0.438 2.58-0.309 2.58-0.309 3.88-2 2.24-2.08 4.58-2.31 7.5-3 3.35-0.863 6.54-2.12 9.75-3.38 31.1-11.9 31.1-11.9 46.5-13.8 3.12-0.251 3.12-0.251 5.94-2.44 3.1-0.374 6.17-0.505 9.29-0.656 2.86-0.0805 2.86-0.0805 4.71-2.34 2.67-0.282 5.26-0.466 7.94-0.562 5.61-0.185 5.61-0.185 11.1-1.44 1.89-0.0685 3.79-0.0848 5.69-0.0625 0.994 0.00902 1.99 0.018 3.01 0.0273 1.14 0.0174 1.14 0.0174 2.3 0.0352v-2c3.87-1.93 8.88-1.38 13.2-1.52 1.18-0.0512 1.18-0.0512 2.38-0.104 1.06-0.0376 1.06-0.0376 2.15-0.0759 2.42-0.233 2.42-0.233 5.03-1.3 3.48-1.06 6.27-1.26 9.9-1.27zm-33.6 135c-4.79 1.53-9.44 1.02-14.4 0.859-3.67 0.125-6.25 0.828-9.66 2.12-5.35 1.43-10.6 2.27-16.2 2.66-2.09 0.208-2.09 0.208-3.85 2.34-2.39 0.527-2.39 0.527-5.25 0.938-4.46 0.736-7.75 1.93-11.8 4.06-2.65 0.79-5.3 1.39-8 2v2c-0.759 0.182-1.52 0.364-2.3 0.551-0.994 0.251-1.99 0.503-3.01 0.762-0.986 0.244-1.97 0.487-2.99 0.738-2.8 0.986-3.74 1.81-5.7 3.95-1.48 0.91-2.98 1.78-4.5 2.62-13 7.7-24.9 18.7-32.2 32-1.32 2.35-1.32 2.35-3.25 5.11-2.4 3.76-4.04 7.55-5.69 11.7-0.299 0.725-0.598 1.45-0.906 2.2-1.79 4.4-3.22 8.78-4.47 13.4-0.351 0.887-0.701 1.77-1.06 2.69-1.2 4.22-1.43 8.33-1.69 12.7-0.246 2.61-0.246 2.61-1.25 4.61-0.101 1.34-0.142 2.69-0.151 4.03-0.00834 0.843-0.0167 1.69-0.0253 2.55-0.00418 0.926-0.00837 1.85-0.0127 2.81-0.00829 0.974-0.0166 1.95-0.0251 2.95-0.0174 2.12-0.0326 4.24-0.0458 6.36-0.021 3.35-0.048 6.7-0.0767 10-0.0699 8.32-0.129 16.6-0.189 24.9-0.0508 7.02-0.106 14-0.166 21.1-0.0267 3.31-0.0474 6.62-0.068 9.93-0.0166 2.02-0.0335 4.03-0.0507 6.05-0.00418 0.928-0.00837 1.86-0.0127 2.81-0.0629 6.33-0.0629 6.33-1.18 7.45-0.17 2.02-0.277 4.05-0.359 6.07-0.614 12.8-1.28 25.4-4.08 38-0.205 0.925-0.411 1.85-0.622 2.8-1.14 4.75-2.62 8.8-4.94 13.1v2c-0.99 0.33-1.98 0.66-3 1-0.0825 0.784-0.165 1.57-0.25 2.38-0.75 2.62-0.75 2.62-2.4 3.57-0.776 0.347-1.55 0.694-2.35 1.05-1.47 0.802-1.47 0.802-2.96 1.62-7.24 3.85-13.7 6.35-21.9 7.77-3.17 0.531-3.17 0.531-6.18 1.65-4.08 1.31-8.01 1.4-12.3 1.61-2.92 0.167-2.92 0.167-5.71 2.34-1.32 0.36-2.66 0.67-4 0.938-4.17 0.98-4.17 0.98-7 4.06-1.19 4.41-1.11 8.77-1.06 13.3 0.00379 0.787 0.00757 1.57 0.0115 2.39 0.0122 2.5 0.0308 5.01 0.051 7.51 0.0265 3.31 0.0465 6.61 0.0625 9.92 0.0083 0.761 0.0166 1.52 0.0251 2.31 0.0251 5.36 0.0251 5.36-1.09 7.59-0.911 7.13-1.15 14.4-1.31 21.6-0.0446 1.02-0.0446 1.02-0.0901 2.06-0.039 3.28 0.189 5.08 2.12 7.78 2.5 1.76 4.15 2.29 7.16 2.73 3.89 0.646 7.38 1.63 11.1 2.88 4.91 1.21 9.88 2 14.9 2.69 1.32 0.186 1.32 0.186 2.67 0.375 1.77 0.246 3.54 0.482 5.32 0.708 4.96 0.687 8.7 1.76 13.1 4.23h2c0.309 0.835 0.309 0.835 0.625 1.69 1.32 2.54 1.32 2.54 4.12 4.44 8.62 6.83 13.4 20.2 14.8 30.7 0.193 3.27 0.193 3.27 2.5 5.19 0.195 2.38 0.195 2.38 0.125 5.36-0.0155 1.1-0.0309 2.2-0.0469 3.33-0.051 2.28-0.103 4.57-0.156 6.85-0.0805 5.81 0.132 11.3 1.07 17 1.33 9.08 1.29 18.1 1.28 27.3-9.81e-4 3.1 0.0122 6.2 0.029 9.3 0.0458 8.81 0.0709 17.6 0.0775 26.4 0.00505 5.42 0.0295 10.8 0.0653 16.3 0.0097 2.04 0.0122 4.09 0.00683 6.13-0.0277 11.1 0.5 21.1 3.63 31.8 0.827 2.93 1.29 5.6 1.54 8.63-0.00598 3.66-0.00598 3.66 2.38 5.62 0.5 1.49 0.936 3.01 1.33 4.54 1.53 5.34 3.72 10 6.36 14.9 0.44 0.824 0.88 1.65 1.33 2.5 3.51 6.45 7.35 12.3 12 18.1 0.545 0.696 1.09 1.39 1.65 2.11 2.83 3.49 5.35 5.75 9.35 7.89 1.55 0.985 3.09 1.99 4.62 3 1.13 0.743 1.13 0.743 2.29 1.5 2.09 1.5 2.09 1.5 3.64 3.11 2.04 1.96 4.45 2.47 7.07 3.37 2.85 1.23 5.24 2.84 7.81 4.58 4.22 2.79 7.57 4.18 12.5 4.98 2.18 0.483 3.65 1.23 5.55 2.39 7.01 4.3 14.5 5.54 22.6 6.63 2.92 0.43 2.92 0.43 4.76 0.935 4.61 1.06 9.44 0.94 14.2 1.12 1.15 0.045 2.3 0.0901 3.49 0.136 10.2 0.34 20.3-0.0137 30.5-0.761v-2h2c1.26-6.85 1.18-13.7 1.2-20.6 0.0057-1.31 0.0114-2.62 0.0173-3.97 0.0105-2.76 0.0163-5.52 0.0198-8.29 0.0055-3.53 0.0296-7.06 0.058-10.6 0.0231-3.38 0.0251-6.77 0.0299-10.1 0.0185-1.9 0.0185-1.9 0.0374-3.83-3e-3 -1.18-6e-3 -2.36-0.00909-3.57 0.00365-1.03 0.00729-2.07 0.011-3.13-0.431-3.32-1.34-5.18-3.37-7.83-2.62-1.01-4.85-1.69-7.56-2.25-0.719-0.166-1.44-0.331-2.18-0.502-4.67-1.04-9.25-1.58-14-1.91-4.08-0.619-7.57-2.53-11.2-4.34-0.887-0.309-1.77-0.619-2.69-0.938-5.32-2.45-8.73-6.59-12.3-11.1h-2v-2h-2c-0.117-0.886-0.235-1.77-0.355-2.68-0.62-3.19-1.54-5.47-2.96-8.38-6.01-13.9-7.79-30.5-7.88-45.6-0.0124-1.22-0.0124-1.22-0.0251-2.46-0.0173-1.75-0.0325-3.5-0.0458-5.25-0.0213-2.8-0.0483-5.59-0.0767-8.39-0.0594-5.96-0.112-11.9-0.163-17.9-0.17-29.2-0.17-29.2-0.906-58.4-0.029-0.893-0.0579-1.79-0.0878-2.71-0.182-4.01-0.729-6.74-2.51-10.3-0.199-2.5-0.316-4.94-0.375-7.44-0.531-11.5-3.48-20.7-10.1-30.2-1.41-2.22-1.91-3.82-2.49-6.34-1.09-1.16-2.19-2.31-3.36-3.39-2.09-2.05-3.97-4.27-5.89-6.48-8.81-9.82-18.9-15.8-31.1-20.4-1.04-0.4-1.04-0.4-2.1-0.809-3.44-1.27-5.87-1.88-9.58-1.88v-2h-2c4.57-4.69 7.87-7.97 14.3-9.5 4.48-1.14 8.5-2.55 12.7-4.5v-2c0.577-0.124 1.15-0.247 1.75-0.375 2.27-0.631 4.18-1.51 6.25-2.62v-2c1.14-0.433 1.14-0.433 2.31-0.875 2.84-1.09 2.84-1.09 5.69-3.12v-2c0.959-0.402 0.959-0.402 1.94-0.812 2.39-1.07 2.39-1.07 3.06-4.19h2c0.33-1.65 0.66-3.3 1-5 0.99-0.33 1.98-0.66 3-1 1.47-2.25 1.47-2.25 2.69-4.94 0.437-0.896 0.874-1.79 1.32-2.71 1.12-2.23 1.12-2.23 0.988-4.35h2c0.186-1.64 0.186-1.64 0.375-3.31 0.625-3.69 0.625-3.69 2.62-6.69 2.49-7.78 2.4-15.5 2.57-23.6 0.0296-1.04 0.0593-2.07 0.0898-3.14 0.0187-0.939 0.0374-1.88 0.0566-2.84 0.287-2.42 0.287-2.42 2.29-5.42 2.27-15 1.34-30.8 1.55-45.8 0.0522-3.57 0.109-7.13 0.167-10.7 0.0136-1.07 0.0272-2.14 0.0411-3.25 0.1-6.2 0.453-12.3 1.01-18.5 0.295-3.46 0.423-6.9 0.512-10.4 0.0374-1.31 0.0748-2.61 0.113-3.96 0.0541-2.02 0.107-4.05 0.158-6.07 0.0516-1.99 0.109-3.98 0.167-5.97 0.0303-1.17 0.0606-2.34 0.0918-3.55 0.189-2.79 0.189-2.79 1.19-4.79 0.127-1.35 0.202-2.71 0.246-4.06 0.0329-0.797 0.0657-1.59 0.0996-2.41 0.0612-1.68 0.118-3.36 0.172-5.05 0.0342-0.797 0.0683-1.59 0.104-2.41 0.0376-1.1 0.0376-1.1 0.0759-2.21 0.303-1.85 0.303-1.85 2.3-3.85 0.487-2.01 0.972-4.02 1.43-6.04 0.71-2.45 1.95-4 3.57-5.96 0.351-0.887 0.701-1.77 1.06-2.69 0.938-2.31 0.938-2.31 2.94-3.31v-2c0.959-0.402 0.959-0.402 1.94-0.812 2.39-1.07 2.39-1.07 3.06-4.19h2l1.37-1.37c1.81-1.81 3.45-2.68 5.76-3.76 2.63-1.16 2.63-1.16 4.88-2.88 1.86-0.263 3.74-0.468 5.61-0.648 1.15-0.119 2.29-0.237 3.48-0.359 2.43-0.243 4.85-0.48 7.28-0.711 1.15-0.121 2.3-0.242 3.49-0.367 1.59-0.155 1.59-0.155 3.2-0.314 3.24-0.662 5.28-1.66 7.94-3.6 1.95-2.9 1.95-2.9 3-6-0.33-0.99-0.66-1.98-1-3-0.485-4.11-0.752-8.25-1.06-12.4-0.0909-1.12-0.182-2.24-0.275-3.39-0.595-7.76-0.771-15.5-0.662-23.2h-2v-8h2v-10h-2c-0.124-0.619-0.247-1.24-0.375-1.88-0.497-2.32-0.497-2.32-2.62-4.12-2.69-0.321-2.69-0.321-5.75-0.25-1.03-0.00516-2.05-0.0103-3.11-0.0156-3.16 0.137-3.16 0.137-6.06 1.28zm107 1.98v2h-2c0.00524 0.789 0.0105 1.58 0.0159 2.39 0.224 39 0.224 39-2.6 51.5-0.828 4.25-1.02 8.38 0.395 12.5 1.26 1.92 1.26 1.92 4.19 3.62 2.05 0.129 2.05 0.129 4.25-0.0625 4.58-0.126 7.55 1.23 11.8 3.06 1.96 0 3.92-0.00216 5.88-0.0938 3.27 0.145 6.1 1.28 9.14 2.44 2.11 0.814 2.11 0.814 4.98 0.656v2h3c0.227 0.557 0.454 1.11 0.688 1.69 1.69 2.97 3.78 5.03 6.31 7.31h2c0.0825 0.681 0.165 1.36 0.25 2.06 0.767 3.01 2.04 5.2 3.63 7.84 4.25 7.99 6.22 16.3 6.74 25.2 0.197 2.83 0.197 2.83 1.38 4.8 1.14 2.41 1.31 4.12 1.42 6.77 0.0387 0.941 0.0773 1.88 0.117 2.85 0.0309 1.03 0.0619 2.05 0.0938 3.11 0.0387 1.07 0.0773 2.14 0.117 3.24 0.359 11.3 0.317 22.7 0.221 34-0.0043 0.714-0.0086 1.43-0.013 2.16-0.0121 1.95-0.0299 3.91-0.048 5.86-0.0472 3.11-0.0472 3.11 1.1 6.06 0.106 1.85 0.156 3.71 0.174 5.57 0.0135 1.14 0.027 2.28 0.0409 3.46 0.0157 1.85 0.0157 1.85 0.0316 3.74 0.0329 2.61 0.0662 5.21 0.0996 7.82 0.0484 4.11 0.0923 8.23 0.131 12.3 0.038 3.97 0.0913 7.93 0.144 11.9 0.00841 1.23 0.0168 2.46 0.0255 3.72 0.0166 1.15 0.0333 2.3 0.0504 3.49 0.0155 1.51 0.0155 1.51 0.0312 3.05 0.3 3.21 1.18 5.88 2.27 8.9 0.255 2.31 0.255 2.31 0.273 4.5 0.0206 0.806 0.0412 1.61 0.0625 2.44 0.026 1.66 0.0442 3.32 0.0547 4.98 0.169 5.87 1.38 9.17 4.61 14.1 0.454 1.09 0.908 2.19 1.38 3.31 3.76 8.96 9.37 17.2 16.6 23.7h3v3c2.54 2.26 5.17 4.11 8 6 0.99 0.66 1.98 1.32 3 2 5.98 3.98 12.2 7.12 18.7 10.1 9.75 4.53 9.75 4.53 13.3 6.68 2.08 1.45 2.08 1.45 5.04 1.2v5h-5c-0.33-0.66-0.66-1.32-1-2-0.33 0.33-0.66 0.66-1 1h-3v2c-0.991 0.098-1.98 0.196-3 0.297-4.31 0.62-7.99 2.16-11.9 3.95-0.705 0.316-1.41 0.631-2.14 0.957-4.91 2.24-9.53 4.64-13.9 7.79-1.01 0.69-1.01 0.69-2.04 1.39-4.02 2.85-7.34 5.83-10.4 9.68-1.55 1.93-1.55 1.93-3.34 3.86-13.1 14.7-17.8 31-17 50.4-0.16 2.66-0.16 2.66-1.15 5.81-1.08 4.12-1.31 7.91-1.31 12.1-0.0127 1.2-0.0127 1.2-0.0256 2.42-0.0257 2.63-0.0379 5.26-0.0504 7.89-0.0162 1.86-0.0334 3.71-0.0515 5.57-0.0456 4.89-0.0804 9.79-0.112 14.7-0.308 46.1-0.308 46.1-0.86 62.4-0.0438 1.49-0.0438 1.49-0.0885 3.02-0.592 14.9-0.592 14.9-3.51 17.8-0.284 2.51-0.448 5.03-0.621 7.55-0.379 2.45-0.379 2.45-2.38 5.45-0.293 0.937-0.585 1.87-0.887 2.84-1.92 5.44-5.59 9.65-9.11 14.2-0.722 0.949-1.44 1.9-2.19 2.88-10.9 8.23-26.6 10.4-39.8 10.7-3.38 0.459-4.75 0.83-7 3.41-1.66 6.41-1.08 13.2-1 19.8 0.0254 2.26 0.0465 4.51 0.0625 6.77 0.0116 0.992 0.0232 1.98 0.0352 3.01-0.0977 2.41-0.0977 2.41-1.1 4.41-0.135 2.59-0.213 5.15-0.238 7.75-0.0121 1.15-0.0121 1.15-0.0245 2.32-0.0138 1.62-0.0246 3.25-0.0324 4.87-0.0172 2.48-0.0611 4.97-0.105 7.45-0.0101 1.58-0.0186 3.15-0.0254 4.73-0.0175 0.744-0.035 1.49-0.0531 2.25 0.0133 3.16 0.0497 5.11 2.12 7.58 2.97 1.31 5.32 1.49 8.57 1.59 1.83 0.0613 1.83 0.0613 3.7 0.124 1.29 0.0262 2.58 0.0524 3.91 0.0793 1.31 0.0346 2.62 0.0691 3.96 0.105 15.2 1.21 15.2 1.21 29.2-2.85 3.5-0.1 6.96 0.0689 10.5 0.223 5.12-0.322 8.35-2.43 12.5-5.22 1.82-0.638 1.82-0.638 3.84-1.18 0.735-0.206 1.47-0.411 2.23-0.623 1.53-0.418 3.07-0.835 4.6-1.25 4.22-1.18 7.64-2.52 11.3-4.94 2.31-0.688 2.31-0.688 4-1v-2c1.08-0.155 1.08-0.155 2.19-0.312 3.76-0.918 6.62-2.45 9.31-5.25 1.5-1.44 1.5-1.44 3.81-2.31 3.59-1.5 5.84-3.47 8.69-6.12v-2c0.99-0.33 1.98-0.66 3-1v-2h2v-2c0.99-0.33 1.98-0.66 3-1 3.03-3.21 4.5-5.6 5-10h2c3.61-4.84 6.66-10.1 9.31-15.6 1.69-3.44 1.69-3.44 3.69-5.44 0.574-1.83 0.574-1.83 0.938-3.94 2.75-13.4 2.75-13.4 5.06-18.1 0.201-1.5 0.363-3 0.5-4.5 0.389-4.28 0.389-4.28 1.5-6.5 0.142-2.02 0.226-4.04 0.281-6.07 0.0374-1.21 0.0748-2.41 0.113-3.66 0.0704-2.56 0.141-5.12 0.211-7.69 0.0374-1.21 0.0748-2.41 0.113-3.65 0.0303-1.11 0.0606-2.23 0.0918-3.37 0.189-2.56 0.189-2.56 1.19-3.56 1.16-7.83 1.2-15.8 1.32-23.7 0.0312-1.79 0.0312-1.79 0.063-3.61 0.0653-3.83 0.124-7.66 0.183-11.5 0.0435-2.63 0.0871-5.25 0.131-7.88 0.238-14.8 0.422-29.5 0.27-44.3-0.00846-1.05-0.0169-2.09-0.0256-3.17-0.0174-1.31-0.0174-1.31-0.0352-2.64 0.0977-2.17 0.0977-2.17 1.1-5.17 0.198-1.39 0.362-2.79 0.5-4.2 0.0825-0.798 0.165-1.6 0.25-2.42 0.167-1.68 0.334-3.36 0.5-5.05 0.647-6.24 0.647-6.24 1.75-7.34 0.223-1.44 0.428-2.87 0.625-4.31 1.79-9.3 6.78-17.1 14.4-22.7v-2c1.18-0.464 1.18-0.464 2.38-0.938 2.55-0.991 2.55-0.991 4.62-2.06v-2c2.02-0.488 4.04-0.977 6.05-1.46 2-0.484 2-0.484 3.95-1.54 1.77-0.176 3.54-0.308 5.31-0.418 6.67-0.513 13.1-1.6 19.7-2.89 1.1-0.2 2.21-0.401 3.35-0.607 1.59-0.312 1.59-0.312 3.21-0.631 0.95-0.182 1.9-0.364 2.88-0.552 3.09-1.08 4.55-2.33 6.56-4.9 0.25-3.58 0.25-3.58 0-7 0.33-0.66 0.66-1.32 1-2 0.254-1.83 0.456-3.66 0.625-5.5 0.0954-0.98 0.191-1.96 0.289-2.97 0.287-2.53 0.287-2.53-0.914-4.53-0.954-8.92-1.06-17.9-1-26.8 0.332-13.4 0.332-13.4-3-26.2h-2v-2c-6.27 0.33-12.5 0.66-19 1v-2c-2.84-1.29-5.21-2.03-8.31-2.44-6.02-0.919-10.9-2.75-15.7-6.56-0.92-0.429-1.84-0.859-2.79-1.3-3.37-1.78-5.71-3.77-8.46-6.39-2.91-3.23-2.91-3.23-6.75-4.31v-3c-0.99-0.66-1.98-1.32-3-2-6.14-10.5-8.08-22.4-8.75-34.4 0.0426-2.55 0.0426-2.55-1.25-3.62-0.259-3.06-0.434-6.09-0.559-9.16-0.0423-1.03-0.0845-2.07-0.128-3.13-0.64-18.3-0.422-36.7-0.382-55.1 0.0104-5.27 0.0148-10.5 0.0198-15.8 0.0106-10.3 0.0276-20.5 0.0488-30.8h-2c0.0174-1.34 0.0174-1.34 0.0352-2.71 0.0535-7.17-0.117-14.2-1.04-21.3h-2v-9h-3c0.155-1.64 0.155-1.64 0.312-3.31-0.0311-5.93-2.68-10.5-5.31-15.7-0.636-1.31-1.27-2.63-1.9-3.95-3.22-6.65-6.48-13.1-10.8-19.2-1.32-1.89-1.32-1.89-2.66-4.39-1.96-2.96-3.99-4.45-6.91-6.45-3.22-2.25-6.3-4.46-9.19-7.12-11.3-9.78-27.7-16.8-42.5-18.6-2.07-0.387-2.07-0.387-5.07-2.39-1.98-0.379-1.98-0.379-4.06-0.5-3.94-0.5-3.94-0.5-5.94-2.5-2.1-0.354-2.1-0.354-4.51-0.379-0.905-0.0342-1.81-0.0683-2.74-0.104-1.42-0.0396-1.42-0.0396-2.88-0.0801-5.64-0.184-11.1-0.451-16.7-1.22-4.66-0.469-9.34-0.359-14-0.341-1.04-0.00387-2.09-0.00773-3.16-0.0117-0.995 0.00129-1.99 0.00258-3.02 0.00391-0.902 0.00113-1.8 0.00226-2.73 0.00342-2.25-0.0139-2.25-0.0139-4.21 1.13zm-85 58 1 2zm-67 114v7h1v-7h-1zm-360 88 1 2zm726 36v1h11v-1h-11zm-70 310 1 2z" fill="#5887F7"/>
<path transform="translate(855,458)" d="m0 0h6v1c0.984 0.0374 1.97 0.0748 2.98 0.113 9.31 0.419 18.4 1.4 27.6 2.8 4.45 0.675 8.84 1.25 13.3 1.52 5.42 0.42 10.4 1.95 15.6 3.54 3.17 0.936 6.31 1.65 9.54 2.34 9.24 2.26 17.4 7.51 25.3 12.6 1.52 0.97 3.09 1.86 4.66 2.75 0.99 0.65 0.99 0.65 2 1.31v2c1.32 0.66 2.64 1.32 4 2v2c0.577 0.248 1.15 0.495 1.75 0.75 2.58 1.43 4.31 3.03 6.25 5.25v2c1.49 0.495 1.49 0.495 3 1v4h2c0.619 1.61 0.619 1.61 1.25 3.25 1.41 3.32 3.15 5.23 5.75 7.75 1.02 1.99 2.02 3.99 3 6 0.66 0.33 1.32 0.66 2 1 0.625 2.56 0.625 2.56 1 5h4c0.0561 0.87 0.0561 0.87 0.113 1.76 0.315 3.74 0.567 6.63 2.32 9.99 1.6 3.32 2.02 5.75 2.5 9.38 0.614 4.55 1.52 8.62 3.06 12.9 3.42 9.72 4.23 19.5 4.66 29.7 0.323 3.06 0.912 4.62 2.34 7.25 0.0777 2.33 0.0897 4.67 0 7 0.66 0.33 1.32 0.66 2 1 0.411 2.1 0.411 2.1 0.633 4.85 0.0838 0.998 0.168 2 0.254 3.03 0.0786 1.05 0.157 2.11 0.238 3.19 0.0864 1.03 0.173 2.05 0.262 3.11 0.454 5.63 0.708 11.2 0.613 16.8h2c-1 2-1 2-2 3h3c0.33-0.66 0.66-1.32 1-2 1.61 1.61 1.13 3.34 1.13 5.57 0.00193 0.953 0.00387 1.91 0.00586 2.89-0.00451 1.03-0.00902 2.05-0.0137 3.11-0.00193 1.04-0.00387 2.09-0.00586 3.17-0.0401 7.24-0.361 14.4-0.904 21.6-0.217 3.69-0.212 7.32-0.152 11 0.0451 4.98-0.412 9.41-1.56 14.2-0.712 3.4-0.886 6.8-1.06 10.3-0.441 2.13-0.441 2.13-1.96 3.61-1.7 1.44-1.7 1.44-1.85 3.79 0.158 7.94 1.53 13.2 6.36 19.7 0.66 0.33 1.32 0.66 2 1v2h4c0.804 1.11 0.804 1.11 1.62 2.25 3.44 3.98 7.48 5.09 12.4 6.75 0.632 0.24 1.26 0.48 1.91 0.727 6.3 2.3 12.5 3.17 19.1 3.9 1.04 0.121 2.07 0.242 3.14 0.367 5.59 0.659 5.59 0.659 11.2 1.23 5.76 0.578 8.25 2.13 12.6 5.78 1.36 2.72 1.12 4.87 1.11 7.92-7.55e-5 1.24-1.51e-4 2.48-2.29e-4 3.76-0.00511 1.36-0.0103 2.72-0.0156 4.08-0.00186 1.39-0.00329 2.77-0.00429 4.16-0.00382 3.65-0.0136 7.31-0.0247 11-0.0102 3.73-0.0148 7.45-0.0198 11.2-0.0107 7.31-0.0278 14.6-0.0488 21.9h-3c0.33 0.99 0.66 1.98 1 3-0.305 2.34-0.305 2.34-0.875 4.94-0.183 0.855-0.366 1.71-0.555 2.59-0.282 1.22-0.282 1.22-0.57 2.47-0.17 1.08-0.17 1.08-0.344 2.18-0.656 1.82-0.656 1.82-2.26 3.01-9.11 4.19-17.4 5.28-27.4 5.8 2.33 3.5 4.03 4.68 8 6v2h2c-0.33-1.65-0.66-3.3-1-5 2.92-1.98 4.12-1.99 7.75-1.62 1.07 0.206 2.14 0.412 3.25 0.625 0.0427 1.67 0.0406 3.33 0 5-1 1-1 1-4.56 1.06-1.13-0.0206-2.27-0.0412-3.44-0.0625v2c1.98-0.33 3.96-0.66 6-1 0.33 1.32 0.66 2.64 1 4h2c0.33 0.33 0.66 0.66 1 1h2v4c0.722-0.681 1.44-1.36 2.19-2.06 2.81-1.94 2.81-1.94 5.62-1.69 0.722 0.247 1.44 0.495 2.19 0.75v3c-0.33 0.33-0.66 0.66-1 1 0.66 0.66 1.32 1.32 2 2-0.66 0.33-1.32 0.66-2 1-0.66 0.99-1.32 1.98-2 3-0.33-0.99-0.66-1.98-1-3-1.32 0.66-2.64 1.32-4 2-0.66-1.32-1.32-2.64-2-4-0.598 0.495-1.2 0.99-1.81 1.5-2.19 1.5-2.19 1.5-5.19 1.5-0.639 0.495-1.28 0.99-1.94 1.5-2.06 1.5-2.06 1.5-6.06 1.5-0.33 0.66-0.66 1.32-1 2 1.32-0.33 2.64-0.66 4-1-2.77 2.97-5.5 4.97-9 7-0.66 0.66-1.32 1.32-2 2h-4c-0.913-4.97-0.913-9.03 0-14-5.02-1.74-8.73-2.62-14-1-2.01 2.93-2.01 2.93-3 6h-2v5h-2c-0.33 0.66-0.66 1.32-1 2-1.32-0.33-2.64-0.66-4-1-0.66 2.97-1.32 5.94-2 9h-6c-0.66-2.64-1.32-5.28-2-8h-1c-0.637 8.86-1.11 17.6-0.938 26.5-0.0625 2.48-0.0625 2.48-1.06 4.48-0.136 3.47-0.0492 6.69 0.5 10.1 0.726 5.62 0.577 11.2 0.5 16.9 3.96 0.0868 6.58 0.107 10-2 0.99 3.47 0.99 3.47 2 7-0.66 0.66-1.32 1.32-2 2-0.99-0.33-1.98-0.66-3-1v-3c-1.24 3.58-0.749 6.34 0 10h-2v2c0.66 0.33 1.32 0.66 2 1h-2c-0.97 5.93-0.893 11.1 0 17h-2c0.33 2.31 0.66 4.62 1 7h2c0.125 2.37 0.125 2.37 0 5-0.66 0.66-1.32 1.32-2 2 0.99 0.33 1.98 0.66 3 1-0.33 0.99-0.66 1.98-1 3 0.99 0.33 1.98 0.66 3 1 0.33 3.3 0.66 6.6 1 10-1.32 0.66-2.64 1.32-4 2 0.0232 0.831 0.0464 1.66 0.0703 2.52 0.018 1.09 0.0361 2.17 0.0547 3.29 0.0232 1.08 0.0464 2.16 0.0703 3.27-0.195 2.92-0.195 2.92-2.2 5.92-0.66 0.33-1.32 0.66-2 1-0.66-0.33-1.32-0.66-2-1-0.33 0.99-0.66 1.98-1 3h-1c0.165 0.908 0.33 1.82 0.5 2.75 0.5 3.25 0.5 3.25 0.5 7.25h-4c-0.33 2.64-0.66 5.28-1 8h-2c-0.33 1.32-0.66 2.64-1 4 0.99-0.33 1.98-0.66 3-1v8c-0.66 0.33-1.32 0.66-2 1v-4c-1.32-0.33-2.64-0.66-4-1-0.144 1.24-0.289 2.47-0.438 3.75-0.274 2.25-0.58 4.31-1.19 6.5-0.528 1.82-0.528 1.82 0.188 3.88 0.144 0.619 0.289 1.24 0.438 1.88-0.66 0.66-1.32 1.32-2 2-0.345 2.33-0.678 4.67-1 7-1.06 2.44-1.06 2.44-2 4h-2c-0.268 0.928-0.536 1.86-0.812 2.81-1.15 3.08-1.92 4.02-4.19 6.19-0.714 2.1-0.714 2.1-1 4-1.32 0.33-2.64 0.66-4 1v11h-6v2c3.05 1.01 3.05 1.01 6 0 1.12 6.75 1.12 6.75 0 9h-4c-0.0825 0.557-0.165 1.11-0.25 1.69-0.989 3.05-2.6 4.96-4.75 7.31h-2c-0.33 0.66-0.66 1.32-1 2-2.38 0.188-2.38 0.188-5 0-2-3-2-3-2-7-1.78-1.07-1.78-1.07-3-1h-3c-0.33 0.99-0.66 1.98-1 3-0.99 0.33-1.98 0.66-3 1-1.23 3.01-1.23 3.01-2 6 0.66 0.33 1.32 0.66 2 1h-5v10c-3 1-3 1-7 1v2c-3.43 1.23-6.87 2.43-10.3 3.62-0.976 0.351-1.95 0.701-2.96 1.06-1.41 0.483-1.41 0.483-2.84 0.977-0.864 0.304-1.73 0.607-2.62 0.92-2.27 0.416-2.27 0.416-5.27-1.58-0.99-0.33-1.98-0.66-3-1-1.19-2.06-1.19-2.06-2-4-0.33 0.66-0.66 1.32-1 2-1.65-0.66-3.3-1.32-5-2 2-2 2-2 5.62-2.12 1.67 0.0619 1.67 0.0619 3.38 0.125v-2c-3.63 0.33-7.26 0.66-11 1-0.495-1.49-0.495-1.49-1-3 0.928-0.454 1.86-0.908 2.81-1.38 3.23-1.57 3.23-1.57 6.19-3.62 1.82-0.638 1.82-0.638 3.84-1.18 0.735-0.206 1.47-0.411 2.23-0.623 1.53-0.418 3.07-0.835 4.6-1.25 4.25-1.19 7.54-2.65 11.3-4.94h4v-2c0.603-0.242 1.21-0.485 1.83-0.734 4.58-1.92 7.75-3.6 11.2-7.27 1.67-0.667 3.33-1.33 5-2 1.35-1.31 2.69-2.64 4-4h2v-2c1.38-1.62 1.38-1.62 3-3h2v-2c0.763-0.742 1.53-1.49 2.31-2.25 2.71-2.78 4.13-5.22 5.69-8.75h2c0.268-0.558 0.536-1.12 0.812-1.69 1.73-3.37 3.76-6.55 5.75-9.77 1.5-2.5 1.5-2.5 2.5-5.23 0.938-2.31 0.938-2.31 2.94-4.31 0.574-1.83 0.574-1.83 0.938-3.94 2.75-13.4 2.75-13.4 5.06-18.1 0.201-1.5 0.363-3 0.5-4.5 0.389-4.28 0.389-4.28 1.5-6.5 0.142-2.02 0.226-4.04 0.281-6.07 0.0374-1.21 0.0748-2.41 0.113-3.66 0.0704-2.56 0.141-5.12 0.211-7.69 0.0374-1.21 0.0748-2.41 0.113-3.65 0.0303-1.11 0.0606-2.23 0.0918-3.37 0.189-2.56 0.189-2.56 1.19-3.56 1.16-7.83 1.2-15.8 1.32-23.7 0.0312-1.79 0.0312-1.79 0.063-3.61 0.0653-3.83 0.124-7.66 0.183-11.5 0.0435-2.63 0.0871-5.25 0.131-7.88 0.238-14.8 0.422-29.5 0.27-44.3-0.00846-1.05-0.0169-2.09-0.0256-3.17-0.0174-1.31-0.0174-1.31-0.0352-2.64 0.0977-2.17 0.0977-2.17 1.1-5.17 0.198-1.39 0.362-2.79 0.5-4.2 0.0825-0.798 0.165-1.6 0.25-2.42 0.167-1.68 0.334-3.36 0.5-5.05 0.647-6.24 0.647-6.24 1.75-7.34 0.223-1.44 0.428-2.87 0.625-4.31 1.77-9.2 6.73-17.3 14.4-22.7l1.56-1.69c1.93-1.76 4-2.45 6.44-3.31v-2c1.41-0.669 2.83-1.31 4.25-1.94 0.789-0.36 1.58-0.719 2.39-1.09 4.04-1.17 7.88-1.38 12.1-1.68 5.53-0.5 10.9-1.58 16.4-2.67 1.11-0.209 2.23-0.418 3.37-0.633 1.06-0.211 2.13-0.423 3.22-0.641 0.955-0.187 1.91-0.375 2.89-0.568 2.66-0.852 3.83-1.52 5.45-3.78 0.167-3.54 0.167-3.54 0-7 0.33-0.66 0.66-1.32 1-2 0.254-1.83 0.456-3.66 0.625-5.5 0.0954-0.98 0.191-1.96 0.289-2.97 0.287-2.53 0.287-2.53-0.914-4.53-1.05-9.83-1.04-19.7-0.983-29.5 0.0309-7.97-0.381-15.7-2.02-23.5h-2v-2c-0.848 0.164-1.7 0.327-2.57 0.496-3.49 0.513-6.78 0.602-10.3 0.566-1.15-0.00902-2.3-0.018-3.49-0.0273-0.869-0.0116-1.74-0.0232-2.63-0.0352v-2c-0.797-0.121-1.59-0.242-2.41-0.367-8.96-1.42-16.3-3.11-23.6-8.63-0.748-0.434-1.5-0.869-2.27-1.32-3.04-1.87-5.77-3.95-8.55-6.18-0.976-0.773-1.95-1.55-2.96-2.34-1.1-1.07-1.1-1.07-2.23-2.16v-3c-0.897-0.309-0.897-0.309-1.81-0.625-5.94-3.73-7.69-14.1-9.31-20.6-1.07-5-1.34-10-1.63-15.1 0.0426-2.55 0.0426-2.55-1.25-3.62-0.255-3.13-0.43-6.23-0.555-9.37-0.0631-1.56-0.0631-1.56-0.127-3.16-0.571-16.3-0.468-32.6-0.448-48.8 0.00577-4.84 0.00236-9.68-0.00357-14.5-0.00361-3.76-0.00247-7.53 1.28e-4 -11.3 6.64e-4 -1.79-1.4e-4 -3.57-0.00248-5.36-0.00254-2.48 0.00134-4.96 0.0069-7.45-0.00202-0.726-0.00405-1.45-0.00613-2.2 0.0167-4.04 0.355-7.85 1.14-11.8h-2c-0.647-8.01-1.17-16-1-24h-2v-9h-3c-0.0748-0.559-0.15-1.12-0.227-1.7-2.45-14.9-10.6-30-19.6-42.2-2.22-3.15-2.22-3.15-2.22-5.15-0.58-0.272-1.16-0.544-1.76-0.824-2.23-1.17-4.12-2.47-6.12-3.99-0.704-0.534-1.41-1.07-2.13-1.62-1.63-1.28-3.19-2.64-4.74-4.01-11.4-9.47-27.5-16.4-42.2-18.2-2.07-0.387-2.07-0.387-5.07-2.39-1.98-0.379-1.98-0.379-4.06-0.5-3.94-0.5-3.94-0.5-5.94-2.5-2.1-0.354-2.1-0.354-4.51-0.379-0.905-0.0342-1.81-0.0683-2.74-0.104-0.949-0.0264-1.9-0.0529-2.88-0.0801-5.64-0.185-11.2-0.422-16.8-1.19-4.35-0.505-8.72-0.622-13.1-0.805-0.966-0.0432-1.93-0.0864-2.93-0.131-2.36-0.105-4.72-0.207-7.07-0.307v-1c2.31-0.66 4.62-1.32 7-2v-2zm203 302v1h11v-1h-11zm-70 310 1 2z" fill="#4E7EEE"/>
<path transform="translate(754,463)" d="m0 0c2.73-0.227 4.62-0.162 7.15 0.914 3.04 3.43 2.3 7.23 2.16 11.6-0.0221 1.4-0.0221 1.4-0.0447 2.83-0.136 6.89-0.528 13.8-0.979 20.6-0.268 4.38-0.197 8.45 0.442 12.8 1.01 8.29 0.854 15.6-2.73 23.2-0.351 0.784-0.701 1.57-1.06 2.38-0.938 1.62-0.938 1.62-2.94 3.62 0.99 1.49 0.99 1.49 2 3-0.66 0.99-1.32 1.98-2 3-0.33 0.99-0.66 1.98-1 3-2.06 0.688-2.06 0.688-4 1v6c1.32 0.66 2.64 1.32 4 2-0.99 3.3-1.98 6.6-3 10h-2c-0.66 1.98-1.32 3.96-2 6h-4v7c-4.55 0.369-4.55 0.369-6.81-1.5-0.392-0.495-0.784-0.99-1.19-1.5 0.33 0.99 0.66 1.98 1 3h-3c-0.33-0.99-0.66-1.98-1-3-2-1.21-2-1.21-4-2v-2h-2v3c0.66 0.33 1.32 0.66 2 1h-2c-0.33 0.66-0.66 1.32-1 2-0.33-1.65-0.66-3.3-1-5-1.49-0.495-1.49-0.495-3-1 0.433 1.2 0.866 2.39 1.31 3.62 0.668 2.59 0.962 3.81-0.223 6.24-1.34 1.63-1.34 1.63-4.09 4.13h-2v13c1.65 0.66 3.3 1.32 5 2v4h-3v4h-3v-7h-2c-0.33 0.99-0.66 1.98-1 3h-1v-7c-0.66-0.33-1.32-0.66-2-1-0.731-2.31-1.4-4.65-2-7-0.959-0.186-0.959-0.186-1.94-0.375-0.681-0.206-1.36-0.413-2.06-0.625-0.33-0.66-0.66-1.32-1-2h-2c0.495 4.45 0.495 4.45 1 9h2c0.66-0.66 1.32-1.32 2-2 0.99 3.47 0.99 3.47 2 7-3.75 1.12-3.75 1.12-6 0-0.82 2.89-1.16 5.5-1.19 8.5-0.0142 0.753-0.0284 1.51-0.043 2.28 0.262 2.52 1.02 4.01 2.23 6.22 1.98 4.06 2.12 6.84 1.62 11.3-0.111 1.07-0.222 2.14-0.336 3.24-0.0954 0.808-0.191 1.62-0.289 2.45 0.949-0.351 1.9-0.701 2.88-1.06 3.12-0.938 3.12-0.938 5.12 0.0625v8c-0.99 0.33-1.98 0.66-3 1-1.21 2-1.21 2-2 4h-2c0.329 0.972 0.657 1.94 0.996 2.95 1.24 4.34 1.19 8.44 1.07 12.9-0.0612 2.71-0.0833 5.41-0.0625 8.12l1 1c-0.0619-1.28-0.124-2.56-0.188-3.88-0.105-2.18-0.105-2.18 0.188-4.12 0.99-0.66 1.98-1.32 3-2 1 1 1 1 1.06 4.56-0.0206 1.13-0.0412 2.27-0.0625 3.44h-2c-0.33 0.66-0.66 1.32-1 2 0.99-0.33 1.98-0.66 3-1 0.224 1.41 0.428 2.83 0.625 4.25 0.116 0.789 0.232 1.58 0.352 2.39 0.0266 2.68-0.611 4.09-1.98 6.36-0.99-0.33-1.98-0.66-3-1-0.289 1.07-0.577 2.14-0.875 3.25-0.853 2.84-1.69 5.19-3.12 7.75h-1c-0.717 2.96-0.992 5.44-0.938 8.5-0.0609 3.41-0.591 5.47-2.06 8.5h-4c0.0417 6.11 0.0417 6.11 3.06 11.1 0.639 0.309 1.28 0.619 1.94 0.938-0.33 1.98-0.66 3.96-1 6-1.81 0.625-1.81 0.625-4 1-0.99-0.66-1.98-1.32-3-2-2.41 3.94-2.41 3.94-2.69 8.38 0.227 0.536 0.454 1.07 0.688 1.62-1.32 0.66-2.64 1.32-4 2v8h2c-0.33 1.65-0.66 3.3-1 5h-2v-3h-3c-0.309 0.949-0.619 1.9-0.938 2.88-1.06 3.12-1.06 3.12-2.06 5.12h-2c0.0412 0.784 0.0825 1.57 0.125 2.38-0.125 2.62-0.125 2.62-2.12 4.62-0.167 3.08-0.167 3.08 0 6h2c0.33-0.66 0.66-1.32 1-2 1 3 1 3 0.223 5.04-0.574 1.06-0.574 1.06-1.16 2.14-0.38 0.715-0.761 1.43-1.15 2.17-0.3 0.543-0.601 1.09-0.91 1.64h-3c0.33 0.66 0.66 1.32 1 2 1.14 3.32 0.845 5.62 0 9h-3c-0.33 1.32-0.66 2.64-1 4-1.32 0.33-2.64 0.66-4 1-0.33 1.32-0.66 2.64-1 4h-10c-1.67 3.34-1.61 5.3-1 9 2.06 2.07 4.23 3.67 6.64 5.32 2.4 1.7 4.32 3.57 6.36 5.68 0.784 0.598 1.57 1.2 2.38 1.81 4.55 3.79 8.21 7.37 9.62 13.2 1.93 1.09 1.93 1.09 4 2 1.88 2.82 2.61 4.73 3.5 7.94 1.46 5.82 1.46 5.82 5.12 10.3 2.31 2.94 1.55 6.11 1.38 9.75h2v5h2c1.42 2.65 2.3 5.09 3 8 0.33 0.33 0.66 0.66 1 1 0.0756 2.06 0.0831 4.13 0.0625 6.2-0.00773 1.27-0.0155 2.55-0.0234 3.86-0.0186 2.03-0.0389 4.05-0.0596 6.08-0.0183 1.96-0.0302 3.91-0.042 5.87-0.0116 1.17-0.0232 2.34-0.0352 3.55 0.101 3.55 0.531 6.94 1.1 10.4h6c0.33-1.32 0.66-2.64 1-4v3h2v2h2c0.33-0.66 0.66-1.32 1-2 0.704 4.4 1 8.56 1 13 0.495 1.48 0.495 1.48 1 3-0.559 2.04-0.559 2.04-1.44 4.19-0.287 0.715-0.575 1.43-0.871 2.17-0.228 0.543-0.456 1.09-0.691 1.64h-2c0.0232 0.892 0.0464 1.78 0.0703 2.7 0.018 1.17 0.0361 2.34 0.0547 3.55 0.0232 1.16 0.0464 2.32 0.0703 3.52-0.185 3.06-0.587 4.68-2.2 7.23-0.495-1.48-0.495-1.48-1-3-0.66 0.66-1.32 1.32-2 2v-4h-2c0.344 2.47 0.344 2.47 1 5 0.66 0.33 1.32 0.66 2 1v5h-1c-1.01 11.1-1.09 22-1 33.1 0.0267 3.29 0.0466 6.59 0.0625 9.88 0.0124 1.12 0.0124 1.12 0.0251 2.26 0.0162 3.41-0.0858 6.47-1.09 9.74-0.115 1.66-0.175 3.33-0.188 5-0.0142 0.846-0.0284 1.69-0.043 2.56 0.336 3.55 1.63 5.7 3.86 8.44 1.38 2 1.38 2 1.38 6 1.32-0.33 2.64-0.66 4-1 0.495 1.49 0.495 1.49 1 3h4c1 6.62 1 6.62 1 10 0.66 0.66 1.32 1.32 2 2-4.84-0.889-7.49-3.74-11-7-0.773-0.712-0.773-0.712-1.56-1.44-1.19-1.14-2.32-2.35-3.44-3.56v-2h-2c-0.41-1.1-0.82-2.19-1.24-3.32-0.544-1.45-1.09-2.91-1.63-4.36-0.269-0.721-0.539-1.44-0.816-2.19-0.264-0.706-0.529-1.41-0.801-2.14-0.361-0.966-0.361-0.966-0.73-1.95-0.559-1.46-1.15-2.92-1.76-4.36-8.12-21.4-5.65-48.1-5.7-70.5-0.02-7.68-0.0758-15.4-0.126-23-0.0121-1.85-0.0238-3.69-0.0351-5.54-0.066-10.5-0.151-21-0.553-31.5-0.0297-0.898-0.0594-1.8-0.09-2.72-0.187-4.02-0.73-6.78-2.52-10.3-0.199-2.5-0.316-4.94-0.375-7.44-0.586-12.7-4.49-22.1-11.6-32.6-0.745-1.3-1.48-2.61-2.19-3.94-1.73-2.92-3.36-4.75-5.81-7.06-0.901-1.1-1.8-2.2-2.69-3.31-10.1-11.9-26.2-19.4-41.3-22.7v-2h-2c1.49-4.48 4.98-6.88 9-9 2.8-0.924 5.58-1.66 8.45-2.32 2.55-0.58 2.55-0.58 4.7-1.76 1.86-0.918 1.86-0.918 4.86-0.918v-2c5.75-3 5.75-3 8-3v-2l3.12-1.56c3.72-2.09 6.04-4.69 8.61-8.05 0.416-0.459 0.833-0.918 1.26-1.39h2c0.103-0.763 0.206-1.53 0.312-2.31 0.688-2.69 0.688-2.69 2.06-4.03 2.04-2.08 3.06-4.23 4.31-6.84 0.437-0.901 0.874-1.8 1.32-2.73 0.489-1.03 0.489-1.03 0.988-2.08h2c-0.0412-1.09-0.0825-2.19-0.125-3.31 0.125-3.69 0.125-3.69 2.12-6.69 2.49-7.78 2.4-15.5 2.57-23.6 0.0445-1.56 0.0445-1.56 0.0898-3.14 0.0187-0.939 0.0374-1.88 0.0566-2.84 0.287-2.42 0.287-2.42 2.29-5.42 2.27-15 1.34-30.8 1.55-45.8 0.0522-3.57 0.109-7.13 0.167-10.7 0.0136-1.07 0.0272-2.14 0.0411-3.25 0.1-6.2 0.453-12.3 1.01-18.5 0.295-3.46 0.423-6.9 0.512-10.4 0.0374-1.31 0.0748-2.61 0.113-3.96 0.0541-2.02 0.107-4.05 0.158-6.07 0.0516-1.99 0.109-3.98 0.167-5.97 0.0303-1.17 0.0606-2.34 0.0918-3.55 0.189-2.79 0.189-2.79 1.19-4.79 0.127-1.35 0.202-2.71 0.246-4.06 0.0329-0.797 0.0657-1.59 0.0996-2.41 0.0612-1.68 0.118-3.36 0.172-5.05 0.0342-0.797 0.0683-1.59 0.104-2.41 0.0376-1.1 0.0376-1.1 0.0759-2.21 0.303-1.85 0.303-1.85 2.3-3.85 0.487-2.01 0.972-4.02 1.43-6.04 0.71-2.45 1.95-4 3.57-5.96 0.33-0.887 0.66-1.77 1-2.69 0.33-0.763 0.66-1.53 1-2.31 0.99-0.33 1.98-0.66 3-1v-2c2.38-2.62 2.38-2.62 5-5h2c0.495-1.49 0.495-1.49 1-3 2.25-1.35 2.25-1.35 5-2.62 3.23-1.35 3.23-1.35 6-3.38 1.86-0.263 3.74-0.468 5.61-0.648 1.15-0.119 2.29-0.237 3.48-0.359 2.43-0.243 4.85-0.48 7.28-0.711 1.15-0.121 2.3-0.242 3.49-0.367 1.06-0.104 2.11-0.207 3.2-0.314 3.23-0.659 5.28-1.67 7.94-3.6 1.47-2.41 1.47-2.41 2-5-0.33-0.99-0.66-1.98-1-3-0.511-4.11-0.798-8.24-1.12-12.4-0.0993-1.12-0.199-2.24-0.301-3.39-0.626-7.86-0.402-15.4 0.426-23.2h-2v-8h2v-10h-2c-0.33-1.32-0.66-2.64-1-4zm5 59 1 2zm-67 114v7h1v-7h-1z" fill="#4F7FF1"/>
<path transform="translate(771 327)" d="m0 0c1.3-0.00953 2.6-0.0191 3.93-0.0289 1.4 2.61e-4 2.81 0.0012 4.21 0.00276 1.45-0.00389 2.91-0.00823 4.36-0.013 3.04-0.00744 6.08-0.00718 9.13-0.00191 3.88 0.00579 7.77-0.0111 11.7-0.0343 3-0.0148 6-0.0156 9.01-0.0125 1.43-5.11e-4 2.86-0.00571 4.29-0.0158 13.3-0.0822 13.3-0.0822 19.8 3.38 3.72 0.25 3.72 0.25 7.56 0 7.87-0.245 14.8 0.995 22.4 3v2c0.99 0.99 0.99 0.99 2 2-0.99 0.33-1.98 0.66-3 1v2c-0.592 0.0374-1.18 0.0748-1.79 0.113-4.81 0.4-8.22 0.925-12.2 3.89 0.99 0.66 1.98 1.32 3 2-0.33 0.99-0.66 1.98-1 3h-3c-3.23 1.9-3.23 1.9-5 5-0.0685 3.74 0.256 7.3 0.703 11 0.147 1.48 0.147 1.48 0.297 2.98-1.88 1.88-5.21 1.37-7.77 1.52-2.62 0.56-3.54 1.45-5.23 3.48-0.99-0.33-1.98-0.66-3-1 0.99-0.33 1.98-0.66 3-1-0.33-0.99-0.66-1.98-1-3-1.09 0.165-2.19 0.33-3.31 0.5-3.82 0.518-6.04 0.716-9.69-0.5v-2h-2c-3-4.38-3-4.38-3-7h-3c0.33 0.743 0.66 1.49 1 2.25 1 2.75 1 2.75 1 6.75h2v3h-2v-2h-2c-2-3-2-3-2-7-1.65-0.33-3.3-0.66-5-1 0.639-0.144 1.28-0.289 1.94-0.438 2.04-0.373 2.04-0.373 3.06-1.56-1.65-0.33-3.3-0.66-5-1-0.33-1.98-0.66-3.96-1-6h-2c-0.33 1.32-0.66 2.64-1 4h-2c-0.33 0.66-0.66 1.32-1 2v-2h-2v3c-2.97 0.66-5.94 1.32-9 2v2c-1.8-0.201-3.59-0.437-5.38-0.688-1.5-0.191-1.5-0.191-3.02-0.387-2.6-0.926-2.6-0.926-3.98-3.21-0.64-2.79-0.67-4.72-0.25-7.53 0.111-0.79 0.222-1.58 0.336-2.39 0.0954-0.592 0.191-1.18 0.289-1.79h-2c-0.33 0.99-0.66 1.98-1 3v-3c-0.724 0.0232-1.45 0.0464-2.2 0.0703-5.35 0.0999-9.8 0.0942-14.8-2.07-0.66 1.98-1.32 3.96-2 6 0.66 0.33 1.32 0.66 2 1h-2v3c-6.62 0.125-6.62 0.125-10-1-0.33 1.32-0.66 2.64-1 4h-2c-0.186 1.02-0.186 1.02-0.375 2.06-0.716 3.37-1.65 6.64-2.62 9.94-0.699 0.121-1.4 0.242-2.12 0.367-1.37 0.251-1.37 0.251-2.76 0.508-1.36 0.244-1.36 0.244-2.74 0.492-2.55 0.463-2.55 0.463-4.38 2.63-3.62 0.125-3.62 0.125-7 0-0.495-3.47-0.495-3.47-1-7-3.85 0-4.52 0.0366-7.5 1.94-2.49 1.51-4.59 2.6-7.5 3.06 1.65 0.66 3.3 1.32 5 2-0.598 0.124-1.2 0.248-1.81 0.375-2.45 0.58-2.45 0.58-5.19 2.62-0.33 0.99-0.66 1.98-1 3-3.37-0.547-5.08-1.05-8-3-1.66-0.385-3.32-0.728-5-1-0.124-1.11-0.247-2.23-0.375-3.38-0.272-3.66-0.272-3.66-2.62-5.62v2c-4.47 4-4.47 4-7 4v-3l-2 1v-2h-3v3l2 1h-2c-0.33 1.65-0.66 3.3-1 5h-6v-3l-2 1v3h-2c-0.33-0.66-0.66-1.32-1-2-5.49 1.49-5.49 1.49-9.5 5.19-0.165 0.598-0.33 1.2-0.5 1.81-0.495-2.48-0.495-2.48-1-5-1.49 0.495-1.49 0.495-3 1-3.01-0.172-5.99-0.513-8.99-0.844-2.9-0.151-5.21 0.141-8.01 0.844 0.165-0.763 0.33-1.53 0.5-2.31 0.591-2.72 0.591-2.72 0.5-5.69 1-3 1-3 4-5-0.928-0.103-1.86-0.206-2.81-0.312-3.22-0.694-4.35-1.03-6.19-3.69v-3c0.536-0.147 1.07-0.294 1.62-0.445 5.45-1.56 10.8-3.41 16.1-5.43 31.2-11.9 31.2-11.9 46.4-13.7 3.12-0.251 3.12-0.251 5.94-2.44 3.1-0.374 6.17-0.505 9.29-0.656 2.86-0.0805 2.86-0.0805 4.71-2.34 2.67-0.282 5.26-0.466 7.94-0.562 5.61-0.185 5.61-0.185 11.1-1.44 1.89-0.0685 3.79-0.0848 5.69-0.0625 0.994 0.00902 1.99 0.018 3.01 0.0273 1.14 0.0174 1.14 0.0174 2.3 0.0352v-2c3.87-1.93 8.88-1.38 13.2-1.52 1.18-0.0512 1.18-0.0512 2.38-0.104 1.06-0.0376 1.06-0.0376 2.15-0.0759 2.42-0.233 2.42-0.233 5.03-1.3 3.48-1.06 6.27-1.26 9.9-1.27z" fill="#5080F2"/>
<path transform="translate(340,686)" d="m0 0h2c0.027 1.46 0.0464 2.92 0.0625 4.38 0.0116 0.812 0.0232 1.62 0.0352 2.46-0.0977 2.16-0.0977 2.16-1.1 4.16-1.99 9.83-2.84 19.9-3.95 29.9-0.122 1.09-0.244 2.18-0.37 3.3-0.108 0.975-0.215 1.95-0.326 2.95-0.254 2.03-0.571 4.06-0.931 6.08-0.416 2.72-0.191 4.2 0.574 6.78-0.495 0.495-0.495 0.495-1 1-0.409 2.98-0.759 5.95-1.06 8.94-0.0894 0.862-0.179 1.72-0.271 2.61-0.579 5.85-0.859 11.6-0.667 17.4 2-0.791 2-0.791 4-2 0.33-0.99 0.66-1.98 1-3v4h2c-0.186-0.949-0.371-1.9-0.562-2.88-0.438-3.12-0.438-3.12 0.562-5.12 2.97 0.66 5.94 1.32 9 2 0.144 1.11 0.289 2.23 0.438 3.38 0.346 3.45 0.346 3.45 1.56 5.62 2.02 1.13 2.02 1.13 4 2-1.98 0.495-1.98 0.495-4 1 1.32 0.33 2.64 0.66 4 1v6c-1.98 0.495-1.98 0.495-4 1v5h3v2h2c-0.959-2.33-0.959-2.33-4-4h7c1.06 1.69 1.06 1.69 2 4-0.227 0.804-0.454 1.61-0.688 2.44-0.103 0.846-0.206 1.69-0.312 2.56 2.29 2.79 2.29 2.79 5 5 1 1 1 1 1.06 3.55-0.0415 2.13-0.0831 4.25-0.125 6.38-0.0302 3.05-0.0302 3.05 0.625 5.84 0.438 2.23 0.438 2.23-0.562 4.23 0.176 3.07 0.517 6.1 0.844 9.15 0.156 2.85 0.156 2.85-0.844 5.85h-2v4c-3.13 1.86-5.37 2.2-9 2v2c1.32 0.33 2.64 0.66 4 1-3.07 0.911-5.8 1.09-9 1 0.0206 0.908 0.0412 1.82 0.0625 2.75-0.0523 2.72-0.375 4.67-1.06 7.25v4h-2v4c1.09-0.206 2.19-0.413 3.31-0.625 3.69-0.375 3.69-0.375 6.69 1.62 0.812 3.5 0.812 3.5 1 7-0.99 0.99-0.99 0.99-2 2-0.167 3.08-0.167 3.08 0 6 2.31-0.33 4.62-0.66 7-1v8c-4.95 1.98-4.95 1.98-10 4v5c1.07 0.206 2.14 0.413 3.25 0.625 4.46 1.63 5.53 3.29 7.75 7.38-4.52 1.37-7.61 0.575-12-1-0.66-0.66-1.32-1.32-2-2-0.66 0.33-1.32 0.66-2 1-0.33-2.97-0.66-5.94-1-9h-3c0.33 5.94 0.66 11.9 1 18 0.99 0.33 1.98 0.66 3 1 0.143 0.724 0.286 1.45 0.434 2.2 0.353 1.75 0.718 3.49 1.1 5.23 1.07 4.97 1.69 9.48 1.46 14.6h2c1.96 2.94 2.31 3.94 2.68 7.28 0.103 0.837 0.206 1.67 0.313 2.54 0.16 1.33 0.16 1.33 0.324 2.68 1.06 7.95 2.86 14.4 6.69 21.5 0.949 2.25 1.82 4.51 2.65 6.81 2.08 5.74 4.73 11.1 7.57 16.5 1.86 3.62 3.06 6.7 3.79 10.7 0.619 0.412 1.24 0.825 1.88 1.25 4.18 3.44 4.88 9.65 6.12 14.8h2v3h3c0.0864 0.58 0.173 1.16 0.262 1.76 0.874 4.86 1.85 7.85 5.32 11.5 2.48 2.99 4.12 6.46 5.93 9.89 1.79 3.4 3.7 6.72 5.61 10.1 0.883 1.78 0.883 1.78 0.883 3.78h2c1.03 1.65 2.02 3.32 3 5 0.468 0.438 0.936 0.877 1.42 1.33 2.71 2.86 4.14 6.48 5.89 9.98 1.89 3 3.9 4.55 6.7 6.69 1.38 1.61 2.71 3.25 4 4.94 4.73 6.38 4.73 6.38 11 11.1 0.495 1.49 0.495 1.49 1 3 0.66 0.33 1.32 0.66 2 1 0.433 1.7 0.433 1.7 0.875 3.44 0.699 3.61 0.699 3.61 3.06 4.69 0.681 0.289 1.36 0.577 2.06 0.875 0.681 1.14 0.681 1.14 1.38 2.31 1.56 2.91 1.56 2.91 4.62 5.19 2.91 2.43 4.14 4.27 6 7.5 3.08 3.47 3.08 3.47 6.95 5.9 2.47 1.33 3.69 2.85 5.43 5.04 2.88 3.42 5.39 5.41 9.62 7.06v2h2v2c0.804 0.289 1.61 0.577 2.44 0.875 2.56 1.12 2.56 1.12 3.56 3.12 2.02 0.652 2.02 0.652 4 1 0.0619 0.619 0.124 1.24 0.188 1.88 0.268 0.701 0.536 1.4 0.812 2.12 1.66 0.69 3.33 1.35 5 2 0.722 0.763 1.44 1.53 2.19 2.31 3.25 3.1 6.45 4.64 10.5 6.48 3.38 1.78 4.97 3.2 6.18 6.84 0.371 0.784 0.743 1.57 1.12 2.38 2.42 0.835 2.42 0.835 5 1 3.68 1.23 3.37 1.73 5 5 1.49 1.47 3.04 2.89 4.62 4.25 0.817 0.706 1.63 1.41 2.48 2.14 0.626 0.531 1.25 1.06 1.9 1.61-0.66 0.33-1.32 0.66-2 1-2.12-0.938-2.12-0.938-4-2v-2c-0.681-0.236-1.36-0.472-2.06-0.715-3.59-1.57-6.72-3.65-9.94-5.85-0.656-0.444-1.31-0.888-1.99-1.35-1.35-0.917-2.7-1.84-4.05-2.76-1.82-1.24-3.65-2.46-5.48-3.68-6.18-4.17-11.8-8.55-17.2-13.7-2.71-2.37-5.53-4.14-8.7-5.84-2-1.46-2.51-2.96-3.59-5.17-1.83-1.9-1.83-1.9-3.94-3.62-0.69-0.59-1.38-1.18-2.09-1.79-3.11-2.71-3.11-2.71-6.97-3.59-3-4.38-3-4.38-3-7-0.557-0.206-1.11-0.412-1.69-0.625-2.6-1.55-4.17-3.45-6.04-5.81-1.39-1.76-1.39-1.76-3.65-3.94-2.22-2.22-4.34-4.47-6.44-6.81-0.605-0.674-1.21-1.35-1.83-2.04-1.36-1.77-1.36-1.77-1.36-3.77-0.99-0.33-1.98-0.66-3-1v-2h-2c-1.51-1.68-1.51-1.68-3.12-3.88-0.539-0.719-1.08-1.44-1.63-2.18-1.24-1.95-1.24-1.95-1.24-3.95h-2c-1.23-1.36-1.23-1.36-2.62-3.31-0.781-1.08-0.781-1.08-1.58-2.18-0.593-0.826-1.19-1.65-1.8-2.5-0.717-0.96-1.43-1.92-2.17-2.91-0.727-0.978-1.45-1.96-2.2-2.96-1.03-1.39-1.03-1.39-2.09-2.8-1.54-2.32-1.54-2.32-1.54-4.32h-2c-0.977-1.79-1.95-3.58-2.93-5.37-0.984-1.8-0.984-1.8-3.07-2.63l-3-6c-0.773-0.712-0.773-0.712-1.56-1.44-2.26-2.46-2.66-5.38-3.44-8.56h-2c-5.08-6.02-8.68-12.9-12-20-0.375-0.714-0.75-1.43-1.14-2.16-0.863-1.84-0.863-1.84-0.863-3.84h-2c-8.37-16.7-8.37-16.7-9.59-19.2-1.11-2.21-2.22-4.41-3.33-6.62-2.05-4.06-4.07-8.13-6.09-12.2-0.683-1.37-0.683-1.37-1.38-2.77-3.32-6.96-5.78-14.2-8.21-21.5-0.284-0.84-0.567-1.68-0.859-2.54-0.251-0.757-0.502-1.51-0.76-2.3-0.731-2.08-0.731-2.08-2.79-3.89-0.667-2.25-1.26-4.53-1.81-6.81-1.27-5.06-2.74-9.89-4.69-14.8-3.89-9.76-6.63-19.6-8.01-30-0.383-2.67-0.383-2.67-2.49-5.43-0.38-2.01-0.684-4.03-0.938-6.06-0.573-4.09-1.25-7.9-2.56-11.8-1.8-5.53-2.4-11.2-3.07-16.9-0.328-3.23-0.328-3.23-1.43-6.22-0.094-1.66-0.131-3.32-0.134-4.98-0.00426-1.03-0.00853-2.06-0.0129-3.11 4.53e-4 -1.13 9.06e-4 -2.25 0.00137-3.41-0.00336-1.19-0.00672-2.37-0.0102-3.6-0.00788-3.26-0.0112-6.51-0.0118-9.77-9.49e-4 -2.72-0.00463-5.43-0.00817-8.15-0.00814-6.41-0.0106-12.8-0.00987-19.2 6.01e-4 -6.61-0.00997-13.2-0.0257-19.8-0.0131-5.68-0.0184-11.4-0.0178-17 2.55e-4 -3.39-0.00262-6.78-0.0132-10.2-0.00974-3.78-0.00695-7.56-8.95e-4 -11.3-0.00562-1.13-0.0112-2.26-0.017-3.42 0.00419-1.02 0.00839-2.05 0.0127-3.11-5.45e-4 -0.894-0.00109-1.79-0.00165-2.71 0.249-2.14 0.249-2.14 2.25-4.14 0.391-1.97 0.689-3.95 0.938-5.94 0.601-4.34 1.36-8.43 2.62-12.6 1.46-4.97 1.9-9.74 2.13-14.9 0.309-2.53 0.309-2.53 2.31-5.53 0.415-1.67 0.765-3.36 1.06-5.06 0.844-4.75 0.844-4.75 1.94-6.94zm-8 38 1 2z" fill="#4F7FF1"/>
<path transform="translate(902,590)" d="m0 0c1.96 1.52 2.89 2.78 4 5 0.361 3.49 0.43 7 0.562 10.5 0.0432 1.08 0.0864 2.16 0.131 3.27 0.402 11.4 0.365 22.8 0.27 34.1-0.00426 0.714-0.00853 1.43-0.0129 2.17-0.012 1.95-0.0297 3.91-0.0479 5.86-0.0472 3.11-0.0472 3.11 1.1 6.06 0.106 1.85 0.156 3.71 0.174 5.57 0.0135 1.14 0.027 2.28 0.0409 3.46 0.0104 1.23 0.0209 2.47 0.0316 3.74 0.0329 2.61 0.0662 5.21 0.0996 7.82 0.0484 4.11 0.0923 8.23 0.131 12.3 0.038 3.97 0.0913 7.93 0.144 11.9 0.00841 1.23 0.0168 2.46 0.0255 3.72 0.0166 1.15 0.0333 2.3 0.0504 3.49 0.0103 1.01 0.0206 2.02 0.0312 3.05 0.3 3.21 1.2 5.87 2.27 8.9 0.188 2.81 0.188 2.81 0 5-0.33 0.33-0.66 0.66-1 1-0.233 1.68-0.413 3.37-0.562 5.06-0.0838 0.919-0.168 1.84-0.254 2.79-0.0909 1.07-0.0909 1.07-0.184 2.15-0.66-0.33-1.32-0.66-2-1-0.344-2.07-0.344-2.07-0.5-4.69-0.336-4.04-0.78-7.59-2.5-11.3-0.99-0.33-1.98-0.66-3-1v-3h-4v3c-1.32 0.33-2.64 0.66-4 1-2.4-3.6-2.24-5.3-2.19-9.56 0.00645-1.16 0.0129-2.31 0.0195-3.5 0.168-2.93 0.168-2.93 1.17-4.93h-5c0.99-0.495 0.99-0.495 2-1v-2h-3c0.33-1.65 0.66-3.3 1-5-0.66-0.33-1.32-0.66-2-1 0.33 0.99 0.66 1.98 1 3h-2c-0.33-2.64-0.66-5.28-1-8h5v-3h6v3c1.32 0.33 2.64 0.66 4 1-0.217-1.05-0.217-1.05-0.438-2.12-0.577-2.95-1.08-5.91-1.56-8.88 0.99-0.495 0.99-0.495 2-1v-17c-0.99 0.495-0.99 0.495-2 1v-7c0.99-0.495 0.99-0.495 2-1 0.0247-4.64 0.0429-9.29 0.0549-13.9 0.00503-1.58 0.0119-3.16 0.0205-4.74 0.0121-2.27 0.0178-4.54 0.0222-6.81 0.00516-0.706 0.0103-1.41 0.0156-2.14 3.52e-4 -3.07-0.133-5.43-1.11-8.37 0.938-2.69 0.938-2.69 2-5h3c-0.142-1.75-0.289-3.5-0.438-5.25-0.0812-0.975-0.162-1.95-0.246-2.95-0.267-2.36-0.67-4.52-1.32-6.8h-2v-6c1.81-0.688 1.81-0.688 4-1z" fill="#5080F2"/>
<path transform="translate(908 878)" d="m0 0c1.21 0.0309 1.21 0.0309 2.44 0.0625 0.225 1.85 0.429 3.71 0.625 5.56 0.174 1.55 0.174 1.55 0.352 3.13 0.0234 3.31 0.0234 3.31-0.956 6.5-1.1 4.1-1.32 7.88-1.32 12.1-0.00844 0.798-0.0169 1.6-0.0256 2.42-0.0257 2.63-0.0379 5.26-0.0504 7.89-0.0162 1.86-0.0334 3.71-0.0515 5.57-0.0456 4.89-0.0804 9.79-0.112 14.7-0.308 46.1-0.308 46.1-0.86 62.4-0.0292 0.995-0.0584 1.99-0.0885 3.02-0.592 14.9-0.592 14.9-3.51 17.8-0.284 2.51-0.448 5.03-0.621 7.55-0.379 2.45-0.379 2.45-2.38 5.45-0.309 0.99-0.619 1.98-0.938 3-1.05 2.95-1.83 3.96-4.06 6 0.308-1.98 0.621-3.96 0.938-5.94 0.174-1.1 0.348-2.2 0.527-3.34 0.535-2.72 0.535-2.72 1.54-3.72 0.101-2.76 0.139-5.49 0.125-8.25 0.00387-0.764 0.00773-1.53 0.0117-2.32-0.00681-3.94-0.166-7.58-1.14-11.4-2.76-0.597-5.16-1-8-1v-8c2.64-0.33 5.28-0.66 8-1-0.33-0.99-0.66-1.98-1-3 0.186-0.825 0.371-1.65 0.562-2.5 0.776-2.74 0.776-2.74-1.56-5.5-0.66-0.33-1.32-0.66-2-1v-6c1.49-0.495 1.49-0.495 3-1 0.33 0.33 0.66 0.66 1 1 0.124-4.11 0.124-4.11-0.625-8.12-0.505-2.53 0.319-3.72 1.62-5.88h-2c-0.0271-2.25-0.0464-4.5-0.0625-6.75-0.0116-1.25-0.0232-2.51-0.0352-3.8 0.0781-2.76 0.392-4.83 1.1-7.45-0.33-0.33-0.66-0.66-1-1-0.0409-2.33-0.0424-4.67 0-7h2c0.33-4.95 0.66-9.9 1-15h2c-0.162-0.752-0.325-1.5-0.492-2.28-0.696-5.11-0.652-10.1-0.633-15.3-0.00387-1.03-0.00773-2.06-0.0117-3.12 0.00129-0.995 0.00258-1.99 0.00391-3.01 0.00169-1.35 0.00169-1.35 0.00342-2.72 0.131-2.62 0.556-5.02 1.13-7.58 0.165-0.871 0.33-1.74 0.5-2.64 0.165-0.861 0.33-1.72 0.5-2.61 0.165-0.871 0.33-1.74 0.5-2.64 0.724-3.06 0.852-3.09 4.06-3.17z" fill="#5080F2"/>
<path transform="translate(591,878)" d="m0 0c3.34 3.34 3.45 6.48 3.69 11 0.138 2.25 0.138 2.25 2.31 4.02 0.195 2.38 0.195 2.38 0.125 5.36-0.0155 1.1-0.0309 2.2-0.0469 3.33-0.051 2.28-0.103 4.57-0.156 6.85-0.0805 5.81 0.132 11.3 1.07 17 1.33 9.08 1.29 18.1 1.28 27.3-9.81e-4 3.1 0.0122 6.2 0.029 9.3 0.0458 8.81 0.0709 17.6 0.0775 26.4 0.00505 5.42 0.0295 10.8 0.0653 16.3 0.0097 2.04 0.0122 4.09 0.00683 6.13-0.0276 11 0.465 21 3.69 31.6 0.903 3.6 1 6.72 0.856 10.4-3.66-3.78-4.51-6.8-5.43-11.8-0.856-3.36-2.42-5.52-4.57-8.23h-1v-7h1c0.495-15.3 0.495-15.3 1-31-1.32-0.66-2.64-1.32-4-2 0.0174-1.41 0.0174-1.41 0.0352-2.85 0.00902-1.25 0.018-2.49 0.0273-3.77 0.0116-1.23 0.0232-2.46 0.0352-3.73-0.00644-3.54-0.00644-3.54-0.598-6.52-0.67-4.18-0.606-8.27-0.562-12.5 0.00451-0.831 0.00902-1.66 0.0137-2.52 0.0117-2.04 0.0296-4.07 0.0488-6.11h2c0.0828-1.35 0.14-2.71 0.188-4.06 0.0522-1.13 0.0522-1.13 0.105-2.29-0.161-2.82-0.161-2.82-1.79-5.73-1.95-4.45-1.88-8.57-1.79-13.4 0.00424-0.878 0.00849-1.76 0.0129-2.66 0.0167-2.78 0.0543-5.56 0.0926-8.34 0.0151-1.9 0.0287-3.79 0.041-5.69 0.0329-4.63 0.0846-9.25 0.146-13.9h-4v-8h3c-0.33-3.3-0.66-6.6-1-10 0.99 0.33 1.98 0.66 3 1 0.33-1.32 0.66-2.64 1-4z" fill="#5080F2"/>
<path transform="translate(943,781)" d="m0 0c0.534 0.375 1.07 0.75 1.62 1.14 4.96 3.41 9.95 6.25 15.4 8.79 1.97 1.08 1.97 1.08 2.97 3.08 1.91 0.803 1.91 0.803 4.19 1.44 3.82 1.21 7.33 2.56 10.8 4.56l1 2c2.53 0.656 2.53 0.656 5 1v5c-6.15 0.0977-6.15 0.0977-8 0-0.33-0.33-0.66-0.66-1-1-0.33 0.66-0.66 1.32-1 2-1.64 0.61-3.32 1.14-5 1.62-5.53 1.77-10.7 3.93-16 6.38-0.73 0.332-1.46 0.664-2.21 1.01-3.97 1.88-6.82 3.68-9.79 6.99-2.29 1.47-4.57 2.78-7 4 0.25-1.88 0.25-1.88 1-4 1.94-1.06 1.94-1.06 4-2 0.66-0.99 1.32-1.98 2-3h3v-2c1.98-0.66 3.96-1.32 6-2-0.309-0.897-0.309-0.897-0.625-1.81-0.375-2.19-0.375-2.19 1.62-5.19 1.88-3.14 2.2-5.35 2-9-1.32-0.33-2.64-0.66-4-1-0.33-1.32-0.66-2.64-1-4-2.31 0.33-4.62 0.66-7 1-0.103 0.784-0.206 1.57-0.312 2.38-0.688 2.62-0.688 2.62-3.69 4.62v-14c3.47-0.495 3.47-0.495 7-1-0.33-2.31-0.66-4.62-1-7z" fill="#4F7EEF"/>
<path transform="translate(597,584)" d="m0 0h2c0.0231 11.5 0.0409 22.9 0.0518 34.4 0.00523 5.32 0.0123 10.6 0.0236 16 0.0108 5.13 0.0168 10.3 0.0194 15.4 0.00185 1.96 0.00548 3.92 0.0109 5.88 0.00721 2.74 0.00826 5.47 0.0078 8.21 0.0036 0.819 0.00719 1.64 0.0109 2.48-0.0104 5.59-0.0104 5.59-1.12 6.71-0.182 2.08-0.301 4.16-0.395 6.25-0.0664 1.3-0.133 2.61-0.201 3.95-0.0349 0.693-0.0698 1.39-0.106 2.1-1.72 33.1-1.72 33.1-7.3 38.7-1-2-1-2-0.531-4.15 0.671-3.59 0.349-6.77 0.0312-10.4-0.364-4.17-0.543-7.42 0.5-11.4 0.206-2.92 0.372-5.83 0.5-8.75 0.0813-1.7 0.163-3.4 0.246-5.1 0.0411-0.856 0.0822-1.71 0.125-2.59 0.198-3.92 0.442-7.83 0.692-11.7 0.0838-1.31 0.168-2.63 0.254-3.98 0.0606-0.935 0.121-1.87 0.184-2.83 0.99 0.99 1.98 1.98 3 3-0.495-6.43-0.495-6.43-1-13-0.99 0.99-0.99 0.99-2 2-1.1-5.71-0.808-10.7-0.0625-16.4 0.0999-0.827 0.2-1.65 0.303-2.51 0.245-2.02 0.501-4.04 0.76-6.06h2c-0.00524-0.972-0.0105-1.94-0.0159-2.95-0.0183-3.66-0.0297-7.32-0.0391-11-0.00498-1.57-0.0118-3.15-0.0205-4.72-0.104-19.3-0.104-19.3 1.08-26.4l1-1z" fill="#5080F2"/>
<path transform="translate(574,383)" d="m0 0c1.68 0.286 3.34 0.618 5 1-0.33 0.949-0.66 1.9-1 2.88-1.1 2.9-1.1 2.9-1 5.12-5.94 0.495-5.94 0.495-12 1 0.33 1.32 0.66 2.64 1 4h-4v3c1.43 0.25 2.87 0.474 4.31 0.688 0.801 0.128 1.6 0.255 2.43 0.387 2.36 0.153 2.36 0.153 4.05-1.55 0.398-0.501 0.797-1 1.21-1.52 1.32 0.66 2.64 1.32 4 2-1 3.29-1.6 4.73-4.5 6.69-2.91 2.69-2.93 3.65-3.5 7.44-0.402 2.66-0.402 2.66-1 4.88-2.27 1.44-3.34 2-6 2-0.33 1.98-0.66 3.96-1 6h-2c-0.33 0.66-0.66 1.32-1 2-1.65-0.99-3.3-1.98-5-3 0.33-1.32 0.66-2.64 1-4-0.99-0.33-1.98-0.66-3-1-0.268 0.639-0.536 1.28-0.812 1.94-1.19 2.06-1.19 2.06-4.19 3.06-1.21 2-1.21 2-2 4h-4c-0.223-1.44-0.428-2.87-0.625-4.31-0.116-0.801-0.232-1.6-0.352-2.43-0.0234-2.26-0.0234-2.26 1.98-5.26 2.62-0.985 5.25-1.42 8-2v2c1.89 0.681 1.89 0.681 4 1 0.66-0.66 1.32-1.32 2-2-0.33-0.66-0.66-1.32-1-2 0.33-0.66 0.66-1.32 1-2-1.32 0.33-2.64 0.66-4 1v-4c3.62-1.32 6.1-2 10-2v-5h-3c-0.66-1.32-1.32-2.64-2-4-2.31 0.33-4.62 0.66-7 1 1-3 1-3 3.88-4.69 3.12-1.31 3.12-1.31 6.12-1.31v-2c2.12-1.44 4.23-2.77 6.44-4.06 4.01-2.18 4.01-2.18 7.56-4.94z" fill="#5080F2"/>
<path transform="translate(1224,799)" d="m0 0c2.19-0.312 2.19-0.312 5 0 3.36 2.59 4.79 4.16 5.81 8.31 0.0619 0.887 0.124 1.77 0.188 2.69h2c0.125 5.75 0.125 5.75-1 8-0.66 0.33-1.32 0.66-2 1h2c-0.66 2.31-1.32 4.62-2 7 0.66 0.33 1.32 0.66 2 1-0.33 0.33-0.66 0.66-1 1 0.0902 2.19 0.247 4.38 0.438 6.56 0.102 1.2 0.204 2.4 0.309 3.63 0.0838 0.927 0.168 1.85 0.254 2.81 1.48-0.495 1.48-0.495 3-1 0.534 1.41 1.05 2.83 1.56 4.25 0.29 0.789 0.58 1.58 0.879 2.39 0.604 2.55 0.406 3.91-0.441 6.36-0.66-0.66-1.32-1.32-2-2-1.48-0.495-1.48-0.495-3-1-0.495 2.48-0.495 2.48-1 5h-9c-0.33-1.98-0.66-3.96-1-6-0.99 0.495-0.99 0.495-2 1-1.63-7.95-1.63-7.95 0.938-12.2 1.02-1.36 1.02-1.36 2.06-2.75 0.167-2.58 0.167-2.58 0-5 0.348-0.593 0.696-1.19 1.05-1.8 1.28-2.98 0.685-4.71-0.0547-7.83-0.688-2.91-0.688-2.91-1-5.38 0.66-0.66 1.32-1.32 2-2 0.714-1.98 1.39-3.98 2-6-0.784-0.103-1.57-0.206-2.38-0.312-2.62-0.688-2.62-0.688-4.62-3.69 0.375-2.19 0.375-2.19 1-4z" fill="#5080F2"/>
<path transform="translate(553,1201)" d="m0 0c2 0.312 2 0.312 4 1 0.33 0.66 0.66 1.32 1 2 1.63 0.995 3.31 1.92 5 2.81 3.59 1.89 7.09 3.84 10.6 5.94 3.99 2.26 7.75 3.11 12.3 3.7 2.55 0.653 3.44 1.63 5.16 3.55 2.52 0.865 4.31 1 7 1 0.495 1.48 0.495 1.48 1 3 2.31-0.33 4.62-0.66 7-1l1 2c2.34 1.13 2.34 1.13 5.06 2.12 0.919 0.353 1.84 0.706 2.79 1.07 0.71 0.266 1.42 0.531 2.15 0.805v2c0.743-0.0412 1.49-0.0825 2.25-0.125 2.84 0.129 4.34 0.696 6.75 2.12v2c0.922 0.0909 0.922 0.0909 1.86 0.184 0.808 0.0838 1.62 0.168 2.45 0.254 0.801 0.0812 1.6 0.162 2.43 0.246 2.26 0.316 2.26 0.316 5.26 1.32v2c2.64 0.33 5.28 0.66 8 1v2c2.64 0.66 5.28 1.32 8 2v3h6l2 4c-7.23-1.45-14.1-3.57-21.1-5.94-1.04-0.347-2.07-0.695-3.14-1.05-8.35-2.81-16.4-5.67-24.2-9.83-2.66-1.3-2.66-1.3-5.93-2.09-4.09-1.22-7.45-2.96-11.2-5.03-7.98-4.36-16.1-8.28-24.4-12.1-7.29-3.41-14.5-7.08-20.1-13 0.33-0.33 0.66-0.66 1-1z" fill="#5080F2"/>
<path transform="translate(1042,1197)" d="m0 0h3c0.495 0.99 0.495 0.99 1 2 3 1.14 4.98 0.971 8 0-6 6.47-15 10.1-22.7 14.2-4.31 2.27-8.49 4.65-12.6 7.3-2.69 1.5-2.69 1.5-6.38 2.81-3.29 1.17-6.05 2.69-9 4.56-5.8 3.59-11.9 5.84-18.3 8.12-1.9 0.687-3.79 1.37-5.69 2.06-0.879 0.317-1.76 0.634-2.66 0.961-7.44 2.72-7.44 2.72-14.6 5.98-2 0.04-4 0.0435-6 0 2.98-2.57 5.13-4.27 9-5 0.825-0.351 1.65-0.701 2.5-1.06 2.5-0.938 2.5-0.938 6.5-0.938v-4c4.46-0.495 4.46-0.495 9-1-0.33-0.99-0.66-1.98-1-3 0.536 0.186 1.07 0.371 1.62 0.562 2.99 0.552 5.41 0.0435 8.38-0.562v-3c-0.66-0.33-1.32-0.66-2-1 1.65-0.33 3.3-0.66 5-1v-2c1.65-0.33 3.3-0.66 5-1v2h3c0.454-0.454 0.908-0.908 1.38-1.38 2-2 4.02-2.6 6.62-3.62 0.33-0.66 0.66-1.32 1-2h6v-8c0.99-0.33 1.98-0.66 3-1 0.495 2.47 0.495 2.47 1 5h5c0.33-0.66 0.66-1.32 1-2-0.99-0.495-0.99-0.495-2-1 0.681 0.103 1.36 0.206 2.06 0.312 4.21-0.448 6.71-2.71 9.94-5.31-0.495-0.99-0.495-0.99-1-2 0.959-0.928 0.959-0.928 1.94-1.88 2.1-1.95 2.1-1.95 3.06-4.12z" fill="#5080F2"/>
<path transform="translate(1267,788)" d="m0 0h1c2.2 7.07 2.27 13.7 2.19 21.1-6.45e-4 1.15-0.00129 2.29-0.00195 3.47-0.0291 5.59-0.268 10.9-1.19 16.5-0.209 2.48-0.397 4.96-0.562 7.44-0.0838 1.24-0.168 2.47-0.254 3.75-0.0606 0.929-0.121 1.86-0.184 2.82-0.495-1.49-0.495-1.49-1-3-1.33-0.354-2.66-0.685-4-1-1.81-1.19-1.81-1.19-3-3 0.234-2.75 0.791-5.22 1.5-7.88 0.786-3.34 1.1-6.72 1.5-10.1-2.39 0.576-4.67 1.22-7 2-1-1-1-1-1.06-4.56 0.0206-1.13 0.0412-2.27 0.0625-3.44 1.98-0.66 3.96-1.32 6-2 0.33-3.3 0.66-6.6 1-10h2c0.33-1.32 0.66-2.64 1-4h-2v-5c0.99 0.33 1.98 0.66 3 1 0.33-1.32 0.66-2.64 1-4z" fill="#5080F2"/>
<path transform="translate(1161,1102)" d="m0 0 2 2c-3.06 4.46-6.12 8.21-10 12-0.983 1.13-1.96 2.27-2.93 3.41-4.55 5.23-9.42 10.1-14.3 15-1.59 1.59-3.17 3.19-4.75 4.78-1.01 1.01-2.02 2.02-3.03 3.04-0.909 0.913-1.82 1.83-2.75 2.77-2.23 1.98-2.23 1.98-4.23 1.98-0.251 0.574-0.503 1.15-0.762 1.74-1.4 2.56-3.01 4.37-5.05 6.45-0.666 0.695-1.33 1.39-2.02 2.11-2.43 1.91-4.13 2.35-7.17 2.71 0.33-0.66 0.66-1.32 1-2h3c-0.33-3.3-0.66-6.6-1-10 1.98-0.495 1.98-0.495 4-1 0.763-0.495 1.53-0.99 2.31-1.5 3.23-1.8 6.03-2.14 9.69-2.5v-3h3v-2h2v-3c-0.33 0.66-0.66 1.32-1 2h-2c-0.33-1.98-0.66-3.96-1-6 1.32-0.33 2.64-0.66 4-1v-4h6c-0.0619-0.784-0.124-1.57-0.188-2.38 0.0928-1.3 0.0928-1.3 0.188-2.62 3-2 3-2 5-2 0.433-0.474 0.866-0.949 1.31-1.44 1.69-1.56 1.69-1.56 4.06-1.94 3.71-0.884 5.2-2.74 7.62-5.62 0.33-0.866 0.66-1.73 1-2.62 1.31-3.12 3.04-3.89 6-5.38z" fill="#5080F2"/>
<path transform="translate(935,346)" d="m0 0c4.59 0.655 8.91 1.78 13.3 3.19 0.684 0.216 1.37 0.433 2.07 0.656 9.63 3.08 19.3 6.32 28.6 10.2v2c0.763 0.103 1.53 0.206 2.31 0.312 2.86 0.731 3.84 1.46 5.69 3.69-0.33 0.66-0.66 1.32-1 2-1.33 0.343-2.66 0.676-4 1-0.66 0.66-1.32 1.32-2 2-0.66-0.33-1.32-0.66-2-1-0.33 0.66-0.66 1.32-1 2-1.56-2.38-1.56-2.38-3-5 0.33-0.66 0.66-1.32 1-2h3c0.33-0.66 0.66-1.32 1-2-5.03 0.525-10 1.11-15 2v3c-4.75-0.875-4.75-0.875-7-2v-5c2.64 0.33 5.28 0.66 8 1v-3c-2.25 0.141-4.5 0.288-6.75 0.438-1.25 0.0812-2.51 0.162-3.8 0.246-3.29 0.191-3.29 0.191-5.72 0.977-1.73 0.34-1.73 0.34-4.73-1.66 0.66-1.32 1.32-2.64 2-4h2v-2c-1.01-0.0735-1.01-0.0735-2.05-0.148-1.34-0.112-1.34-0.112-2.7-0.227-0.882-0.0696-1.76-0.139-2.67-0.211-2.57-0.413-4.34-1.13-6.58-2.41 0.33-1.32 0.66-2.64 1-4z" fill="#4F7FF0"/>
<path transform="translate(719,463)" d="m0 0c-4.62 4.62-13.9 4.98-20.2 5.56-3.83 0.039-3.83 0.039-5.81 2.44-2.39 0.527-2.39 0.527-5.25 0.938-4.46 0.731-7.72 2-11.8 4.06-2.68 0.519-5.28 0.765-8 1v2c-1.46 0.504-2.92 1-4.38 1.5-0.812 0.278-1.62 0.557-2.46 0.844-2.16 0.656-2.16 0.656-4.16 0.656-0.33 0.99-0.66 1.98-1 3-1.61 1.04-1.61 1.04-3.75 2.06-9.26 4.88-17.4 12-25.2 18.9 0.812-2.44 0.812-2.44 2-5 1.49-0.495 1.49-0.495 3-1 0.702-1.32 1.37-2.65 2-4 1.31-1.44 1.31-1.44 3-3 0.784-0.784 1.57-1.57 2.38-2.38 1.3-1.3 1.3-1.3 2.62-2.62 0.99-1.24 0.99-1.24 2-2.5 3.93-3.27 8.06-4.53 12.8-6.24 2.74-1.1 4.72-2.16 7.03-3.95 5.43-4.02 10.5-4.58 17.1-4.31v-2c4.9-2.74 10.2-3.23 15.6-4.12 1.04-0.182 2.09-0.364 3.16-0.551 6.47-1.07 12.7-1.57 19.2-1.32z" fill="#5080F2"/>
<path transform="translate(761,1132)" d="m0 0c2.4 3.6 3.05 6.74 3 11-0.61 2.87-1.42 4.42-3 7-2.69 0.938-2.69 0.938-5 1v2c-4.95 0.495-4.95 0.495-10 1-2-4.75-2-4.75-2-7-0.66-0.66-1.32-1.32-2-2h2v-2c-2.97-0.33-5.94-0.66-9-1l2-4h20v-2h2v-3c0.66-0.33 1.32-0.66 2-1z" fill="#5080F1"/>
<path transform="translate(681,1255)" d="m0 0c2.54 0.311 5.08 0.624 7.62 0.938 1.07 0.131 1.07 0.131 2.16 0.264 4.09 0.507 8.15 1.09 12.2 1.8-1.32-0.99-2.64-1.98-4-3 1.46-0.054 2.92-0.0928 4.38-0.125 0.812-0.0232 1.62-0.0464 2.46-0.0703 2.16 0.195 2.16 0.195 4.16 2.2 2.08 0.034 4.15 0.0559 6.23 0.0156 15.2-0.0854 15.2-0.0854 21.8 3.98 2.24 0.686 2.24 0.686 4 1-0.278 0.928-0.278 0.928-0.562 1.88-0.674 2.17-0.674 2.17 0.562 4.12-12.6-1.81-12.6-1.81-16.9-3.06-3.65-1.01-7.22-1.17-11-1.38-5.05-0.301-9.21-1-13.9-2.8-3.19-1.13-6.45-1.67-9.77-2.29-3.19-0.636-6.26-1.53-9.38-2.47v-1z" fill="#5080F2"/>
<path transform="translate(1266,843)" d="m0 0c0.66 0.33 1.32 0.66 2 1 0.598 1.96 0.598 1.96 1.06 4.38 0.522 2.65 1.08 5.06 1.94 7.62-0.296 0.726-0.593 1.45-0.898 2.2-1.38 3.52-1.56 6.88-1.73 10.6-0.058 1.04-0.058 1.04-0.117 2.1-0.0935 1.7-0.177 3.39-0.258 5.09h-3c-0.33-3.96-0.66-7.92-1-12-2.51 1.26-2.87 2.5-4 5v-2h-3c0.33-1.32 0.66-2.64 1-4v2h2v-9c-1.32 0.33-2.64 0.66-4 1v-3c-0.99 0.495-0.99 0.495-2 1-1-3-1-3-0.0625-5.19 0.351-0.598 0.701-1.2 1.06-1.81 2.5 1.38 2.5 1.38 5 3v2h3c-0.0619-1.28-0.124-2.56-0.188-3.88-0.105-2.18-0.105-2.18 0.188-4.12 0.99-0.66 1.98-1.32 3-2z" fill="#5080F2"/>
<path transform="translate(754,463)" d="m0 0c2.91-0.243 4.58-0.242 7.15 1.23 1.85 1.77 1.85 1.77 2.32 3.88-0.0146 0.8-0.0292 1.6-0.0442 2.43-0.00838 0.893-0.0168 1.79-0.0254 2.71-0.029 0.931-0.058 1.86-0.0879 2.82-0.00967 0.904-0.0193 1.81-0.0293 2.74-0.1 6.11-0.584 12.1-1.28 18.2-1.49 0.495-1.49 0.495-3 1-0.33 2.97-0.66 5.94-1 9h-1c-0.196-2.54-0.382-5.08-0.562-7.62-0.0561-0.713-0.112-1.43-0.17-2.16-0.293-4.25-0.163-8.01 0.732-12.2h-2v-8h2v-10h-2c-0.33-1.32-0.66-2.64-1-4z" fill="#436BCB"/>
<path transform="translate(548,846)" d="m0 0c10.7-0.198 20.1-0.164 28.6 7.25 0.804 0.908 1.61 1.82 2.44 2.75 0.903 0.969 0.903 0.969 1.82 1.96 5.49 6 5.49 6 6.18 10-1.69-1.31-3.35-2.64-5-4v-1c-1.13-0.268-2.27-0.536-3.44-0.812-1.76-0.588-1.76-0.588-3.56-1.19-0.33-0.99-0.66-1.98-1-3-0.724-0.049-1.45-0.098-2.2-0.148-5.22-0.404-9.9-0.864-14.8-2.85 0.33-1.98 0.66-3.96 1-6h-3c-0.33 2.31-0.66 4.62-1 7l-2-2c0.33-0.66 0.66-1.32 1-2-0.99-0.33-1.98-0.66-3-1 0.33-0.66 0.66-1.32 1-2h3v-2h-6v-1z" fill="#4F7EEF"/>
<path transform="translate(627,506)" d="m0 0c-1.32 2.83-2.81 5.18-4.75 7.62-8.69 11.5-14.4 24.5-18.2 38.4-0.351 0.887-0.701 1.77-1.06 2.69-1.42 5.02-1.62 10.1-1.94 15.3-1.49 0.495-1.49 0.495-3 1-0.0812-2.25-0.139-4.5-0.188-6.75-0.0348-1.25-0.0696-2.51-0.105-3.8 0.315-3.71 0.94-4.72 3.29-7.45 0.635-1.94 0.635-1.94 0.938-4 2-10.1 5.8-19.7 10.5-28.9 0.391-0.761 0.781-1.52 1.18-2.3 1.38-1.82 1.38-1.82 3.54-2.58 0.607-0.0799 1.21-0.16 1.84-0.242 0.0825-0.928 0.165-1.86 0.25-2.81 0.75-3.19 0.75-3.19 2.62-5.06 2.12-1.12 2.12-1.12 5.12-1.12z" fill="#5080F2"/>
<path transform="translate(762,1071)" d="m0 0c1.18 10.3 1.19 20.7 1.19 31.1 0.00221 2.96 0.0205 5.93 0.0393 8.89 0.00293 1.89 0.00492 3.78 0.00586 5.68 0.0108 1.32 0.0108 1.32 0.0218 2.67-0.00308 0.822-0.00615 1.64-0.00932 2.49 0.00143 0.719 0.00285 1.44 0.00432 2.18-0.286 2.35-1.08 3.98-2.25 6.03-0.66-0.33-1.32-0.66-2-1v-57c2-1 2-1 3-1z" fill="#5080F2"/>
<path transform="translate(1104,1161)" d="m0 0v3c-2.06 1.86-4.1 3.53-6.31 5.19-0.636 0.488-1.27 0.975-1.93 1.48-9.82 7.49-19.8 14.8-30.1 21.6-2.58 1.67-2.58 1.67-4.69 3.38-2.2 1.56-4.4 2.46-6.94 3.38 0.33-0.99 0.66-1.98 1-3 0.887-0.412 1.77-0.825 2.69-1.25 5.08-2.68 8.26-6.5 10.7-11.7 0.206-0.681 0.412-1.36 0.625-2.06 0.33 0.66 0.66 1.32 1 2 2.52-0.625 2.52-0.625 5-2 0.699-2.54 0.699-2.54 1-5 0.675-0.182 1.35-0.364 2.05-0.551 0.892-0.251 1.78-0.503 2.7-0.762 0.882-0.244 1.76-0.487 2.67-0.738 2.67-0.984 4.36-2.19 6.58-3.95 1.47-0.836 2.95-1.65 4.44-2.44 3.49-1.9 6.56-3.94 9.56-6.56z" fill="#5080F2"/>
<path transform="translate(881,549)" d="m0 0c1.16 4.05 0.837 6.22-1 10 2.17-0.833 2.17-0.833 3-3 2 1.06 2 1.06 4 3 0.0409 2.33 0.0424 4.67 0 7 0.99 0.66 1.98 1.32 3 2v4c-5.48 0.365-5.48 0.365-7.88-1.31-1.12-1.69-1.12-1.69-1.12-4.69-1.75-1.66-1.75-1.66-3.94-3.25-3.17-2.64-3.96-3.37-5.06-7.5v-6.25c3.48-1.16 5.46-0.708 9 0z" fill="#5080F2"/>
<path transform="translate(1203,1022)" d="m0 0c1.65 0.66 3.3 1.32 5 2-0.99 0.495-0.99 0.495-2 1v2c0.99-0.33 1.98-0.66 3-1 0.375 2.75 0.375 2.75 0 6-2.88 2.12-2.88 2.12-6 4-0.351 0.722-0.701 1.44-1.06 2.19-0.309 0.598-0.619 1.2-0.938 1.81-2.62 0.75-2.62 0.75-5 1v-5c-2.97-0.33-5.94-0.66-9-1 0.33-2.31 0.66-4.62 1-7 7.43-0.286 7.43-0.286 11 2 0.66-0.99 1.32-1.98 2-3h2c-0.278-0.959-0.278-0.959-0.562-1.94-0.144-0.681-0.289-1.36-0.438-2.06 0.33-0.33 0.66-0.66 1-1z" fill="#5080F2"/>
<path transform="translate(807,489)" d="m0 0c3.11 2.93 4.83 6.53 5.32 10.8-0.00347 2.43-0.0929 4.82-0.316 7.24h-7c-0.66-1.65-1.32-3.3-2-5-2.31-0.33-4.62-0.66-7-1-0.25-5.62-0.25-5.62 2-9h2v-2c3-1 3-1 7-1z" fill="#5080F2"/>
<path transform="translate(724,919)" d="m0 0c0.66 0.33 1.32 0.66 2 1 1.33 8.23 1.85 16.8 0 25-1.32 0.33-2.64 0.66-4 1-3.11-4.6-4-8.49-4-14 1.77-4.46 3.81-8.73 6-13z" fill="#5080F2"/>
<path transform="translate(835,1103)" d="m0 0h2c2.02 23.9 2.02 23.9-1 33h-2v-6h-2v-5c-0.66-0.33-1.32-0.66-2-1-0.108-1.92-0.186-3.83-0.25-5.75-0.0464-1.07-0.0928-2.13-0.141-3.23 0.479-3.7 1.65-4.61 4.39-7.02 0.797-2.64 0.797-2.64 1-5z" fill="#5080F2"/>
<path transform="translate(669,1126)" d="m0 0c6.49 0.294 10.5 1.56 16 5 2.27 0.76 2.27 0.76 4 1 0.124 0.639 0.247 1.28 0.375 1.94 0.206 0.681 0.413 1.36 0.625 2.06 0.66 0.33 1.32 0.66 2 1-0.33 0.99-0.66 1.98-1 3-1.09-0.0206-2.19-0.0412-3.31-0.0625-3.63-0.123-3.63-0.123-6.69 1.06-0.66-1.98-1.32-3.96-2-6-0.99 0.495-0.99 0.495-2 1v-2h-2v-2c-1.65-0.33-3.3-0.66-5-1 0.33-1.32 0.66-2.64 1-4-0.66-0.33-1.32-0.66-2-1z" fill="#5080F2"/>
<path transform="translate(759,495)" d="m0 0c5.25 5.25 4.2 17.5 4.25 24.7 0.00918 0.683 0.0184 1.37 0.0278 2.07-0.0229 3.64-0.202 5.13-2.28 8.24h-2c-0.772-4.11-1.13-7.99-1.13-12.2-0.00129-1.14-0.00258-2.28-0.00391-3.46 0.00387-1.18 0.00773-2.35 0.0117-3.56-0.00387-1.19-0.00773-2.38-0.0117-3.6 0.00129-1.14 0.00258-2.27 0.00391-3.44 0.00113-1.04 0.00226-2.07 0.00342-3.14 0.129-2.63 0.129-2.63 1.13-5.63zm0 27 1 2z" fill="#5080F2"/>
<path transform="translate(802,1113)" d="m0 0c2.44 0.938 2.44 0.938 5 3 0.891 2.99 1.22 5.89 1 9-0.99 1.48-0.99 1.48-2 3v-4c-0.99 1.48-0.99 1.48-2 3h-2c-0.33 1.65-0.66 3.3-1 5 0.66 0.33 1.32 0.66 2 1h-2v6c-2-1-2-1-3-4l-2 4h-1v-10c0.66-0.33 1.32-0.66 2-1l1 2c0.647-1.6 1.29-3.21 1.94-4.81 0.36-0.893 0.719-1.79 1.09-2.71 0.709-1.81 1.36-3.64 1.97-5.48h-2c-0.33 0.66-0.66 1.32-1 2 0.875-4.88 0.875-4.88 2-6z" fill="#5080F2"/>
<path transform="translate(1220,987)" d="m0 0c2 1 2 1 2.75 2.94 1.8 2.98 3.99 3.21 7.25 4.06 0.33-0.99 0.66-1.98 1-3l2 1c-1.32 2.31-2.64 4.62-4 7-1.65-0.33-3.3-0.66-5-1-0.66 1.65-1.32 3.3-2 5h-5c-0.081-2.1-0.139-4.21-0.188-6.31-0.0348-1.17-0.0696-2.34-0.105-3.55 0.293-3.14 0.293-3.14 1.8-5.05 0.491-0.357 0.982-0.714 1.49-1.08z" fill="#5080F2"/>
<path transform="translate(1270,797)" d="m0 0h1v57c-2-1-2-1-2.67-2.79-1.85-8.51-1.22-16.8 0.176-25.3 0.709-5.59 0.859-11.2 1.05-16.8 0.0432-1.16 0.0864-2.32 0.131-3.52 0.105-2.85 0.208-5.7 0.307-8.54z" fill="#5988F8"/>
<path transform="translate(1258,905)" d="m0 0c1.16 7.47 1.05 13-2 20h-2v-7h-2c-0.33 0.66-0.66 1.32-1 2v-4h2v-6h-2c0.75-1.94 0.75-1.94 2-4 1.75-0.637 3.14-1 5-1z" fill="#5080F2"/>
<path transform="translate(1222,877)" d="m0 0c5.22 0 5.22 0 8 1 2.06 2.41 3.27 4.92 4 8-0.41 2.26-0.41 2.26-1 4-3.37-0.58-4.63-1.63-7-4-2.1-0.714-2.1-0.714-4-1v-8z" fill="#5080F2"/>
<path transform="translate(1233,970)" d="m0 0c0.99 0.33 1.98 0.66 3 1-0.613 2.96-1.25 4.38-3 7h-2c-0.0825 1.28-0.165 2.56-0.25 3.88-0.262 2.21-0.262 2.21-0.75 4.12-2.06 1.5-2.06 1.5-4 2-2-2-2-2-2.12-4.62 0.0412-0.784 0.0825-1.57 0.125-2.38h2c0.103-0.722 0.206-1.44 0.312-2.19 0.747-3.06 1.97-5.2 3.69-7.81 0.99 0.33 1.98 0.66 3 1v-2z" fill="#5080F2"/>
<path transform="translate(613,384)" d="m0 0c-0.33 1.32-0.66 2.64-1 4-0.99-0.33-1.98-0.66-3-1v2h-2c-0.33 0.99-0.66 1.98-1 3h-2c-0.33 0.66-0.66 1.32-1 2-3.72 0.201-4.77 0.152-8-2 0.66-1.32 1.32-2.64 2-4h4c0.33-0.99 0.66-1.98 1-3 3.73-0.879 7.17-1.09 11-1z" fill="#5080F2"/>
<path transform="translate(822,352)" d="m0 0c0.66 0.66 1.32 1.32 2 2h4v6c-2.92 1.98-4.12 1.99-7.75 1.62-1.07-0.206-2.14-0.413-3.25-0.625-0.66-2.64-1.32-5.28-2-8 3.62-2.12 3.62-2.12 7-1z" fill="#5887F7"/>
<path transform="translate(335,763)" d="m0 0c3 1 3 1 4.12 3.12 0.997 3.28 1.48 6.48 1.88 9.88-1.32-0.66-2.64-1.32-4-2-3.31 1.71-3.31 1.71-3.69 5.12-0.103 0.949-0.206 1.9-0.312 2.88h-1c-0.0809-2.6-0.14-5.21-0.188-7.81-0.0377-1.11-0.0377-1.11-0.0762-2.24-0.0747-5.5-0.0747-5.5 1.78-7.96 0.491-0.326 0.982-0.652 1.49-0.988z" fill="#5383F4"/>
<path transform="translate(353,824)" d="m0 0 1 2h2c3 5.62 3 5.62 3 9l-1 2c0.66 0.33 1.32 0.66 2 1-2.33 0.0424-4.67 0.0409-7 0-1-1-1-1-1.13-3.69 0.00258-1.09 0.00516-2.19 0.00781-3.31-0.00258-1.09-0.00516-2.19-0.00781-3.31 0.133-2.69 0.133-2.69 1.13-3.69z" fill="#5786F7"/>
<path transform="translate(529 840)" d="m0 0c1.09 0.371 2.19 0.742 3.31 1.12 2.33 0.339 4.67 0.672 7 1 2.36 0.595 4.67 1.29 7 2v2c-0.619 0.124-1.24 0.247-1.88 0.375-2.32 0.497-2.32 0.497-4.12 2.62v-3c-0.664-0.0374-1.33-0.0748-2.01-0.113-9-0.67-9-0.67-13-3.89-0.33-0.66-0.66-1.32-1-2 2-1 2-1 4.69-0.125z" fill="#4F7FEF"/>
<path transform="translate(588,675)" d="m0 0c0.66 0.33 1.32 0.66 2 1v17c-0.66 0.33-1.32 0.66-2 1-0.66-1.98-1.32-3.96-2-6h-1c-0.33-3.3-0.66-6.6-1-10h3c0.33-0.99 0.66-1.98 1-3z" fill="#5080F2"/>
<path transform="translate(1083,864)" d="m0 0c2.62 0.375 2.62 0.375 5 1v3c-0.33 0.33-0.66 0.66-1 1 0.66 0.66 1.32 1.32 2 2l-2 1c-0.99 1.49-0.99 1.49-2 3-0.33-0.99-0.66-1.98-1-3-1.98 0.99-1.98 0.99-4 2-0.887-2.48-1.15-3.62-0.188-6.12 1.19-1.88 1.19-1.88 3.19-3.88z" fill="#5080F2"/>
<path transform="translate(1201,1048)" d="m0 0c0.66 0.33 1.32 0.66 2 1-0.615 0.953-1.23 1.91-1.86 2.89-0.816 1.27-1.63 2.53-2.45 3.8-0.404 0.626-0.808 1.25-1.22 1.9-2.21 3.44-4.38 6.89-6.46 10.4-0.66-0.33-1.32-0.66-2-1 0.704-2.32 1.44-4.63 2.19-6.94 0.295-0.989 0.295-0.989 0.596-2 0.635-1.9 0.635-1.9 2.22-5.06 2.59-0.812 2.59-0.812 5-1 1.36-1.97 1.36-1.97 2-4z" fill="#5080F2"/>
<path transform="translate(890,1135)" d="m0 0c6.4-0.369 6.4-0.369 9.44 1.5 0.516 0.495 1.03 0.99 1.56 1.5h-2c0.33 0.99 0.66 1.98 1 3-0.99 1.48-0.99 1.48-2 3-3.12 0.188-3.12 0.188-6 0 0.33-1.98 0.66-3.96 1-6-1.32-0.33-2.64-0.66-4-1 0.33-0.66 0.66-1.32 1-2z" fill="#5080F2"/>
<path transform="translate(1260,886)" d="m0 0v11c-0.99 0.495-0.99 0.495-2 1v-2l-4 2v-11c5-1 5-1 6-1z" fill="#5080F2"/>
<path transform="translate(848,535)" d="m0 0c7.62 0.875 7.62 0.875 11 2v4c0.99 0.33 1.98 0.66 3 1h-2v2h-4v-4c-1.3-0.124-2.6-0.247-3.94-0.375-2.21-0.211-2.21-0.211-4.06-0.625-0.33-0.66-0.66-1.32-1-2 0.33-0.66 0.66-1.32 1-2z" fill="#4E7DED"/>
<path transform="translate(597,376)" d="m0 0c-1.32 0.99-2.64 1.98-4 3 0.99 0.66 1.98 1.32 3 2-4 2.83-7.43 1.76-12 1v-3c3.69-2.83 8.53-5.23 13-3z" fill="#4F7EEE"/>
<path transform="translate(870,539)" d="m0 0c3.3 0.99 6.6 1.98 10 3v2h3c2.69 2.38 2.69 2.38 5 5v2c-2.97-0.495-2.97-0.495-6-1v-3c-0.615-0.159-1.23-0.317-1.86-0.48-6.68-1.93-6.68-1.93-9.2-5.21-0.309-0.763-0.619-1.53-0.938-2.31z" fill="#4A77E1"/>
<path transform="translate(846,1057)" d="m0 0h5c-0.33 0.99-0.66 1.98-1 3 0.33-0.33 0.66-0.66 1-1 2.02 0.09 4.05 0.246 6.06 0.438 1.66 0.153 1.66 0.153 3.35 0.309 0.855 0.0838 1.71 0.168 2.59 0.254-0.33 0.66-0.66 1.32-1 2-3.42 1.14-6.09 1.1-9.69 1.06-1.77-0.0135-1.77-0.0135-3.57-0.0273-0.904-0.0116-1.81-0.0232-2.74-0.0352v-6z" fill="#5080F2"/>
<path transform="translate(915,842)" d="m0 0c0.66 0.33 1.32 0.66 2 1-0.312 2.88-0.312 2.88-1 6-0.99 0.66-1.98 1.32-3 2-3.19-0.875-3.19-0.875-6-2 0.33-1.32 0.66-2.64 1-4h4v-2c0.99-0.33 1.98-0.66 3-1z" fill="#5080F2"/>
<path transform="translate(812,1258)" d="m0 0h8c-0.33 1.98-0.66 3.96-1 6h-9c0.66-1.98 1.32-3.96 2-6z" fill="#5080F2"/>
<path transform="translate(840,471)" d="m0 0h3v24c-0.99-0.33-1.98-0.66-3-1v-23z" fill="#070B17"/>
<path transform="translate(844,472)" d="m0 0h1v24c-0.66-0.33-1.32-0.66-2-1-0.0289-3.65-0.0468-7.29-0.0625-10.9-0.00838-1.04-0.0168-2.08-0.0254-3.15-0.00483-1.48-0.00483-1.48-0.00977-3-0.00524-0.916-0.0105-1.83-0.0159-2.78 0.114-2.13 0.114-2.13 1.11-3.13z" fill="#23386B"/>
<path transform="translate(533,757)" d="m0 0c-3 2-4.71 2.49-8.19 3.12-0.901 0.168-1.8 0.335-2.73 0.508-0.687 0.121-1.37 0.242-2.08 0.367-0.33 1.65-0.66 3.3-1 5h-2c0.99-2.97 1.98-5.94 3-9 1.6-0.39 3.21-0.762 4.81-1.12 0.893-0.209 1.79-0.418 2.71-0.633 2.48-0.242 2.48-0.242 5.48 1.76z" fill="#5080F2"/>
<path transform="translate(1070,873)" d="m0 0c1.32 1.32 2.64 2.64 4 4h-2v2c-0.578-0.165-1.15-0.33-1.75-0.5-3.64-0.809-6.72-0.508-10.2 0.5 1.32-1.65 2.64-3.3 4-5 0.619 0.206 1.24 0.413 1.88 0.625 1.05 0.186 1.05 0.186 2.12 0.375 0.66-0.66 1.32-1.32 2-2z" fill="#5988F8"/>
<path transform="translate(614,369)" d="m0 0c0.33 0.99 0.66 1.98 1 3-0.99 0.495-0.99 0.495-2 1-1.13 2.02-1.13 2.02-2 4h-2c-0.687-2.49-1-4.38-1-7-0.99 0.33-1.98 0.66-3 1v-3c3.72-1.03 5.79-1.3 9 1z" fill="#4E7DEC"/>
<path transform="translate(841,495)" d="m0 0h1c0.0539 2.77 0.0936 5.54 0.125 8.31 0.0251 1.18 0.0251 1.18 0.0508 2.38 0.00645 0.757 0.0129 1.51 0.0195 2.29 0.0157 1.04 0.0157 1.04 0.0317 2.11-0.227 1.9-0.227 1.9-2.23 4.9-1.31-6.39-0.916-12.6 0-19 0.33-0.33 0.66-0.66 1-1z" fill="#5080F2"/>
<path transform="translate(1242,942)" d="m0 0h5c-0.75 6.75-0.75 6.75-3 9-0.99-0.66-1.98-1.32-3-2 0.33-2.31 0.66-4.62 1-7z" fill="#5080F2"/>
<path transform="translate(1051,756)" d="m0 0c2.31 0.33 4.62 0.66 7 1v3c3.63 0.33 7.26 0.66 11 1v1h-13v-2c-1.65-0.33-3.3-0.66-5-1v-3z" fill="#04060D"/>
<path transform="translate(577,866)" d="m0 0c0.66 0.33 1.32 0.66 2 1-0.33 1.98-0.66 3.96-1 6-3.01 0.934-3.87 1.04-7 0v-4c0.804-0.124 1.61-0.247 2.44-0.375 0.846-0.206 1.69-0.413 2.56-0.625 0.33-0.66 0.66-1.32 1-2z" fill="#5080F2"/>
<path transform="translate(340,686)" d="m0 0h2c0.0813 1.44 0.139 2.87 0.188 4.31 0.0348 0.801 0.0696 1.6 0.105 2.43-0.356 2.75-1.14 3.58-3.29 5.26h-1c-0.178-4.55 0.00215-7.88 2-12z" fill="#5181F3"/>
<path transform="translate(548,846)" d="m0 0h10v3h-3c-0.33 2.31-0.66 4.62-1 7l-2-2c0.33-0.66 0.66-1.32 1-2-0.99-0.33-1.98-0.66-3-1 0.33-0.66 0.66-1.32 1-2h3v-2h-6v-1z" fill="#5080F2"/>
<path transform="translate(1075,760)" d="m0 0c4.55-0.369 4.55-0.369 6.81 1.5 0.392 0.495 0.784 0.99 1.19 1.5-1.23 2.46-2.78 3.42-5 5-0.33-1.65-0.66-3.3-1-5h-2v-3z" fill="#000001"/>
<path transform="translate(976,802)" d="m0 0c2.64 0.33 5.28 0.66 8 1v5c-4.5 0.365-4.5 0.365-6.81-1.31-1.19-1.69-1.19-1.69-1.19-4.69z" fill="#000001"/>
<path transform="translate(1264,729)" d="m0 0c0.99 0.33 1.98 0.66 3 1v3h2v4h-2v2c-2-1-2-1-3-2-0.141-2.67-0.0425-5.32 0-8z" fill="#5180F2"/>
<path transform="translate(801,1076)" d="m0 0c2.14 3.2 2.23 4.02 2.12 7.69-0.018 0.808-0.0361 1.62-0.0547 2.45-0.0348 0.922-0.0348 0.922-0.0703 1.86h-3c-0.66-0.99-1.32-1.98-2-3l3-9z" fill="#5080F2"/>
<path transform="translate(837,1070)" d="m0 0c1.03 3.27 0.964 5.86 0.562 9.25-0.102 0.892-0.204 1.78-0.309 2.7-0.0838 0.675-0.168 1.35-0.254 2.05-0.66-0.33-1.32-0.66-2-1-0.379-2-0.379-2-0.562-4.44-0.244-3.41-0.244-3.41-1.44-6.56 1.32-0.66 2.64-1.32 4-2z" fill="#5080F2"/>
<path transform="translate(556,413)" d="m0 0c0.688 1.81 0.688 1.81 1 4-1.31 1.75-1.31 1.75-3 3h-2v-2h-2v-4c2.08-0.553 3.84-1 6-1z" fill="#5685F6"/>
<path transform="translate(1071,874)" d="m0 0c2.31 0.33 4.62 0.66 7 1-0.712 0.65-0.712 0.65-1.44 1.31-1.8 1.71-1.8 1.71-2.56 4.69-2.97-0.33-5.94-0.66-9-1 1.32-0.99 2.64-1.98 4-3v2h3c-0.33-1.65-0.66-3.3-1-5z" fill="#5080F2"/>
<path transform="translate(717,604)" d="m0 0h5v4h-3v4h-3c0.33-2.64 0.66-5.28 1-8z" fill="#5282F3"/>
<path transform="translate(733,597)" d="m0 0c0.99 0.33 1.98 0.66 3 1-2.75 5.88-2.75 5.88-5 7-0.652 2.02-0.652 2.02-1 4-0.95-3.7-0.95-6.3 0-10 0.99-0.33 1.98-0.66 3-1v-1z" fill="#5080F2"/>
<path transform="translate(1266,843)" d="m0 0c0.66 0.33 1.32 0.66 2 1 0.407 2.32 0.744 4.66 1 7-0.99 0.66-1.98 1.32-3 2-0.186-0.866-0.186-0.866-0.375-1.75-0.631-2.27-1.51-4.18-2.62-6.25 0.99-0.66 1.98-1.32 3-2z" fill="#5181F3"/>
<path transform="translate(995,554)" d="m0 0c2 1.38 2 1.38 4 4 0.358 3.36 0.231 6.64 0 10h-2v-10h-2v-4z" fill="#000001"/>
<path transform="translate(902,338)" d="m0 0c3.95-0.179 6.6-0.0935 10 2v2h-8c-0.66-1.32-1.32-2.64-2-4z" fill="#5181F2"/>
<path transform="translate(771,335)" d="m0 0c-0.33 0.66-0.66 1.32-1 2-1.96 0.449-1.96 0.449-4.38 0.688-0.791 0.0864-1.58 0.173-2.4 0.262-2.23 0.0508-2.23 0.0508-5.23-0.949v-2c4.66-0.838 8.37-1.02 13 0z" fill="#5988F8"/>
<path transform="translate(332,766)" d="m0 0 2 1c1.39 5.66 0.622 9.56-1 15h-1v-16z" fill="#5988F8"/>
<path transform="translate(1015,912)" d="m0 0 4 2v6h-4v-8z" fill="#5080F2"/>
<path transform="translate(1252,934)" d="m0 0h2c-0.256 1.61-0.531 3.21-0.812 4.81-0.151 0.893-0.302 1.79-0.457 2.71-0.784 2.66-1.62 3.74-3.73 5.48-0.33-1.32-0.66-2.64-1-4h2c-0.0412-0.928-0.0825-1.86-0.125-2.81 0.125-3.19 0.125-3.19 2.12-6.19z" fill="#5080F2"/>
<path transform="translate(339,755)" d="m0 0h3c2 2 2 2 2 6h-2l-1 2c-1.56-1.19-1.56-1.19-3-3 0.312-2.69 0.312-2.69 1-5z" fill="#5080F2"/>
<path transform="translate(908,983)" d="m0 0h1v25h-1v-25z" fill="#000001"/>
<path transform="translate(888,466)" d="m0 0h10v1h-10v-1z" fill="#000001"/>
<path transform="translate(841,1073)" d="m0 0h1v9h-1v-9z"/>
<path transform="translate(1043,759)" d="m0 0h8v1h-8v-1z"/>
<path transform="translate(1266,878)" d="m0 0h1v7h-1v-7z" fill="#000001"/>
<path transform="translate(908,665)" d="m0 0h1v7h-1v-7z" fill="#000002"/>
<path transform="translate(841,1085)" d="m0 0h1v6h-1v-6z" fill="#000002"/>
<path transform="translate(693,1260)" d="m0 0h5v1h-5v-1z" fill="#000001"/>
<path transform="translate(841,515)" d="m0 0h1v5h-1v-5z" fill="#000001"/>
<path transform="translate(641,494)" d="m0 0h2v2c-0.99-0.33-1.98-0.66-3-1 0.33-0.33 0.66-0.66 1-1z"/>
<path transform="translate(647,491)" d="m0 0c0.33 0.66 0.66 1.32 1 2-1.32-0.33-2.64-0.66-4-1 0.99-0.33 1.98-0.66 3-1z"/>
<path transform="translate(654,486)" d="m0 0h2v2c-0.99-0.33-1.98-0.66-3-1 0.33-0.33 0.66-0.66 1-1z"/>
<path transform="translate(602,558)" d="m0 0 1 4z"/>
<path transform="translate(661,1252)" d="m0 0c3 1 3 1 3 1z" fill="#000002"/>
<path transform="translate(744,1063)" d="m0 0c3 1 3 1 3 1z"/>
<path transform="translate(957,815)" d="m0 0c3 1 3 1 3 1z" fill="#000002"/>
<path transform="translate(1027,751)" d="m0 0c3 1 3 1 3 1z"/>
<path transform="translate(565,751)" d="m0 0c3 1 3 1 3 1z"/>
<path transform="translate(636,499)" d="m0 0c0.33 0.66 0.66 1.32 1 2-0.66-0.33-1.32-0.66-2-1 0.33-0.33 0.66-0.66 1-1z"/>
<path transform="translate(650,488)" d="m0 0c0.33 0.66 0.66 1.32 1 2-0.66-0.33-1.32-0.66-2-1 0.33-0.33 0.66-0.66 1-1z"/>
<path transform="translate(658,483)" d="m0 0c0.33 0.66 0.66 1.32 1 2-0.66-0.33-1.32-0.66-2-1 0.33-0.33 0.66-0.66 1-1z"/>
<path transform="translate(964,812)" d="m0 0 2 1z"/>
<path transform="translate(638,497)" d="m0 0 2 1z"/>
<path transform="translate(659,482)" d="m0 0 2 1z" fill="#000001"/>
<path transform="translate(928,476)" d="m0 0 2 1z"/>
<path transform="translate(920,473)" d="m0 0 2 1z" fill="#000001"/>
</svg>
