<svg xmlns:dc="http://purl.org/dc/elements/1.1/" xmlns:cc="http://creativecommons.org/ns#" xmlns:rdf="http://www.w3.org/1999/02/22-rdf-syntax-ns#" xmlns:svg="http://www.w3.org/2000/svg" xmlns="http://www.w3.org/2000/svg" xmlns:sodipodi="http://sodipodi.sourceforge.net/DTD/sodipodi-0.dtd" xmlns:inkscape="http://www.inkscape.org/namespaces/inkscape" version="1.1" id="svg2" xml:space="preserve" sodipodi:docname="Logo Vector-01.eps" viewBox="485.51 582.91 1571.11 354.77"><metadata id="metadata8"><rdf:RDF><cc:Work rdf:about=""><dc:format>image/svg+xml</dc:format><dc:type rdf:resource="http://purl.org/dc/dcmitype/StillImage"/></cc:Work></rdf:RDF></metadata><defs id="defs6"/><sodipodi:namedview pagecolor="#ffffff" bordercolor="#666666" borderopacity="1" objecttolerance="10" gridtolerance="10" guidetolerance="10" inkscape:pageopacity="0" inkscape:pageshadow="2" inkscape:window-width="640" inkscape:window-height="480" id="namedview4"/><g id="g10" inkscape:groupmode="layer" inkscape:label="ink_ext_XXXXXX" transform="matrix(1.3333333,0,0,-1.3333333,0,1440)"><g id="g12" transform="scale(0.1)"><path d="m 7201.52,4777.4 c 175.16,0 222,120.17 222,297.38 0,177.19 -30.55,299.4 -215.89,299.4 -126.28,0 -226.08,-97.76 -226.08,-309.59 0,-181.27 91.65,-287.19 219.97,-287.19 z m 499,-120.17 c 0,-338.1 -124.25,-551.95 -523.44,-551.95 -384.95,0 -460.3,213.85 -470.49,334.03 h 297.36 c 20.37,-73.32 73.33,-122.22 185.35,-122.22 189.42,0 226.08,116.1 226.08,321.82 v 50.91 c -54.99,-91.65 -142.58,-148.68 -297.37,-148.68 -276.99,0 -435.86,228.12 -435.86,511.23 0,329.95 197.56,556.03 460.3,556.03 181.27,0 256.63,-85.54 272.93,-134.43 2.03,28.52 10.18,91.66 12.22,109.99 h 274.96 c 0,-95.73 -2.04,-201.64 -2.04,-303.47 v -623.26" style="fill:#ffffff;fill-opacity:1;fill-rule:nonzero;stroke:none" id="path14"/><path d="m 7847.17,4528.92 v 1486.83 h 293.28 V 4528.92 h -293.28" style="fill:#ffffff;fill-opacity:1;fill-rule:nonzero;stroke:none" id="path16"/><path d="m 8539.64,5056.44 c 0,-203.68 87.58,-323.85 228.12,-323.85 144.61,0 224.04,120.17 224.04,321.82 0,219.96 -81.47,323.84 -228.12,323.84 -134.42,0 -224.04,-99.79 -224.04,-321.81 z m 747.49,2.04 c 0,-319.78 -191.46,-554.01 -525.48,-554.01 -325.88,0 -517.33,234.23 -517.33,547.9 0,325.88 197.56,556.03 531.58,556.03 309.59,0 511.23,-219.96 511.23,-549.92" style="fill:#ffffff;fill-opacity:1;fill-rule:nonzero;stroke:none" id="path18"/><path d="m 9896.1,5374.18 c -167.01,0 -226.07,-107.95 -226.07,-323.86 0,-177.18 52.95,-313.64 222,-313.64 148.67,0 228.07,132.37 228.07,331.98 0,177.2 -67.2,305.52 -224,305.52 z m -505.11,641.57 h 293.29 v -543.81 c 42.77,67.22 130.35,136.46 301.44,136.46 287.18,0 429.78,-238.3 429.78,-533.62 0,-301.45 -154.8,-570.31 -458.29,-570.31 -156.83,0 -226.08,46.85 -277,124.24 0,-34.63 -6.11,-73.32 -12.22,-99.79 h -279.03 c 2.03,114.06 2.03,230.16 2.03,344.22 v 1142.61" style="fill:#ffffff;fill-opacity:1;fill-rule:nonzero;stroke:none" id="path20"/><path d="m 11148.3,5009.59 h -118.1 c -177.2,0 -242.4,-54.99 -242.4,-156.83 0,-75.36 46.8,-140.52 152.8,-140.52 185.3,0 207.7,130.35 207.7,268.83 z m 285.1,-207.74 c 0,-101.84 8.2,-248.48 14.3,-272.93 h -279 c -8.2,20.36 -14.3,77.39 -14.3,103.88 -38.7,-59.08 -110,-128.33 -297.3,-128.33 -254.6,0 -360.5,167.02 -360.5,329.95 0,240.36 191.4,352.38 501,352.38 h 150.7 v 63.14 c 0,75.35 -26.5,148.68 -162.9,148.68 -122.2,0 -150.8,-50.92 -163,-128.32 h -277 c 14.3,187.38 130.4,338.1 452.2,338.1 281,-2.03 435.8,-112.01 435.8,-364.57 v -441.98" style="fill:#ffffff;fill-opacity:1;fill-rule:nonzero;stroke:none" id="path22"/><path d="m 11584.2,4528.92 v 1486.83 h 293.2 V 4528.92 h -293.2" style="fill:#ffffff;fill-opacity:1;fill-rule:nonzero;stroke:none" id="path24"/><path d="m 12296.2,4846.65 c 22.4,-85.55 91.7,-132.37 199.6,-132.37 108,0 146.6,38.69 146.6,103.85 0,67.21 -44.8,93.71 -195.5,130.36 -344.2,85.54 -399.2,191.46 -399.2,340.14 0,154.79 108,319.77 425.7,319.77 319.8,0 429.7,-175.16 437.9,-317.74 h -277 c -10.2,38.71 -36.7,112.04 -173.1,112.04 -95.8,0 -128.4,-42.78 -128.4,-89.62 0,-52.96 32.6,-77.4 203.7,-118.14 352.4,-81.46 403.3,-201.65 403.3,-356.42 0,-175.18 -134.4,-334.05 -454.2,-334.05 -321.8,0 -452.2,154.8 -476.6,342.18 h 287.2" style="fill:#ffffff;fill-opacity:1;fill-rule:nonzero;stroke:none" id="path26"/><path d="m 13311.3,5056.44 c 0,-203.68 87.6,-323.85 228.1,-323.85 144.6,0 224.1,120.17 224.1,321.82 0,219.96 -81.5,323.84 -228.2,323.84 -134.4,0 -224,-99.79 -224,-321.81 z m 747.5,2.04 c 0,-319.78 -191.5,-554.01 -525.5,-554.01 -325.9,0 -517.3,234.23 -517.3,547.9 0,325.88 197.5,556.03 531.6,556.03 309.5,0 511.2,-219.96 511.2,-549.92" style="fill:#ffffff;fill-opacity:1;fill-rule:nonzero;stroke:none" id="path28"/><path d="m 14242.5,4528.92 v 835.07 h -154.8 v 219.97 h 154.8 v 91.65 c 0,217.93 107.9,360.51 336.1,360.51 46.8,0 107.9,-4.07 134.4,-12.22 v -230.15 c -16.3,2.04 -38.7,4.07 -61.1,4.07 -85.6,0 -118.2,-30.55 -118.2,-144.61 v -69.25 h 183.4 v -219.97 h -183.4 v -835.07 h -291.2" style="fill:#ffffff;fill-opacity:1;fill-rule:nonzero;stroke:none" id="path30"/><path d="m 14762.7,5583.96 h 162.9 v 285.15 h 291.3 v -285.15 h 207.7 v -219.97 h -207.7 v -521.4 c 0,-79.44 24.4,-110 112,-110 16.3,0 44.8,0 65.2,2.05 v -199.61 c -57.1,-20.36 -136.5,-20.36 -195.6,-20.36 -205.7,0 -272.9,109.97 -272.9,295.33 v 553.99 h -162.9 v 219.97" style="fill:#ffffff;fill-opacity:1;fill-rule:nonzero;stroke:none" id="path32"/><path d="m 5767.38,4977.93 c -197.62,0 -224.95,-73.56 -224.95,-208.12 v -239.67 c 0,-264.91 -172.4,-382.63 -386.83,-382.63 h -69.38 v 210.24 h 29.42 c 124.04,0 155.58,75.68 155.58,193.42 v 216.53 c 0,172.4 65.18,296.43 233.36,323.76 -174.49,29.43 -233.36,151.37 -233.36,330.07 v 216.55 c 0,119.83 -44.14,199.74 -161.88,199.74 h -23.12 v 210.23 h 69.38 c 195.51,0 386.83,-96.72 386.83,-378.43 v -248.09 c 0,-128.24 27.33,-206.03 224.95,-208.12 z m -910.26,859.89 h -29.43 c -124.05,0 -155.59,-75.69 -155.59,-193.43 v -216.54 c 0,-172.41 -63.07,-296.44 -233.36,-323.78 174.51,-29.42 233.36,-151.36 233.36,-330.06 v -216.55 c 0,-119.82 44.16,-199.71 161.89,-199.71 h 23.13 v -210.24 h -69.38 c -193.42,0 -386.84,96.71 -386.84,378.42 v 248.08 c 0,128.24 -25.23,208.13 -224.95,208.13 v 235.47 c 197.61,0 224.95,73.57 224.95,210.24 v 237.57 c 0,264.89 172.39,382.63 386.84,382.63 h 69.38 z m 114.55,590.34 c -734.75,0 -1330.38,-595.63 -1330.38,-1330.38 0,-734.74 595.63,-1330.38 1330.38,-1330.38 734.75,0 1330.37,595.64 1330.37,1330.38 0,734.75 -595.62,1330.38 -1330.37,1330.38" style="fill:#5c8aff;fill-opacity:1;fill-rule:nonzero;stroke:none" id="path34"/></g></g></svg>
